<?xml version="1.0" encoding="UTF-8"?>
<svg id="_图层_1" data-name="图层 1" xmlns="http://www.w3.org/2000/svg" viewBox="0 0 280.82 280.82">
  <defs>
    <style>
      .cls-1 {
        fill: #aa2c18;
      }

      .cls-2 {
        fill: #fff;
      }

      .cls-3 {
        fill: none;
        stroke: #d5968c;
        stroke-width: 2px;
      }
    </style>
  </defs>
  <g>
    <path class="cls-3" d="M279.82,140.41C279.82,63.42,217.4,1,140.41,1,63.42,1,1,63.42,1,140.41h0c0,76.99,62.42,139.41,139.41,139.41h0c76.99,0,139.41-62.42,139.41-139.41"/>
    <path class="cls-3" d="M276.56,129.03C270.26,53.97,204.21-1.75,129.04,4.56t0,0C53.87,10.87-1.96,76.83,4.34,151.89t0,0c6.3,75.06,72.35,130.78,147.52,124.47h0c75.17-6.31,131-72.27,124.7-147.33,0,0,0,0,0,0"/>
    <path class="cls-3" d="M273.78,140.43c0-73.65-59.7-133.35-133.35-133.35h0C66.78,7.08,7.08,66.78,7.08,140.43c0,73.65,59.7,133.35,133.35,133.35s133.35-59.7,133.35-133.35"/>
    <path class="cls-3" d="M121.89,29.86c-.44.64-.58,1.27-.42,1.88.06.24.3.38.54.32.09-.02.16-.07.22-.13.37-.39.64-.82.83-1.28.09-.22.24-.41.44-.55,2.09-1.49,6.43-4.86,6.43-7.52,0-.97-.9-1.74-2-1.71-.09,0-.18,0-.27.02-.95.14-1.65.37-2.08.68-.29.21-.7.14-.91-.15-.01-.02-.03-.04-.04-.06l-1.51-2.62c-.19-.33-.22-.73-.08-1.08l2.05-5.25c.18-.45-.05-.96-.5-1.14,0,0,0,0,0,0l-.34-.13c-.68-.27-1.46.07-1.73.76,0,0,0,0,0,0l-3.3,8.45c-.1.24,0,.51.23.63.41.21.9.35,1.49.42.49.07.84.52.77,1.01-.01.1-.04.2-.09.29l-2.82,5.46c-.11.22-.38.3-.59.19-.08-.04-.14-.11-.19-.19-.82-1.57-2.25-2.95-4.29-4.13-.24-.13-.55-.04-.68.2-.06.12-.08.25-.04.38.63,1.95,1.81,3.5,3.54,4.65.54.36.69,1.09.33,1.64-.16.24-.39.41-.67.48-.76.2-1.44.26-2.05.18-.45-.06-.86.26-.92.71-.02.16,0,.32.08.46.52,1.09,1.32,1.81,2.4,2.18.51.17,1.06-.1,1.23-.61,0-.02.01-.04.02-.06.66-2.43,2.13-4.1,4.42-5.01.22-.09.46.02.55.24.05.13.03.28-.05.39"/>
    <path class="cls-3" d="M159.03,24.2c-1.41-.53-2.76.11-4.03,1.92-.24.33-.69.4-1.02.16-.18-.13-.29-.33-.3-.55-.07-2.1-1.34-4.65-.56-6.86.11-.31.29-.59.53-.81,1.75-1.61,3.47-2.95,3.72-4.76.05-.32-.18-.62-.5-.67-.17-.02-.35.03-.48.14-1.29,1.11-2.6,1.67-3.95,1.66-.67,0-1.32.23-1.83.67-1.12.95-3.8,2.95-8.03,5.98-.7.5-.89,1.47-.43,2.16.23.35.6.58,1.01.63.71.09,1.28.47,1.71,1.14.21.33.25.74.12,1.11-2.31,6.41-3.73,12.75-4.27,19.02-.13,1.55.41,2.42,1.62,2.6.36.06.73-.05,1-.3,1.1-.99,1.88-2.41,2.34-4.28.57-2.33-.98-4.97-.05-7.75.51-1.51,1.71-4.44,3.6-8.79.17-.38.19-.81.07-1.21-.21-.71-.64-1.41-1.28-2.1-.2-.21-.24-.52-.1-.77.33-.65.77-1.22,1.31-1.71.19-.17.48-.16.65.03.07.08.11.17.12.27l.57,5.63s.02.08.04.11c1.13,2.06,2.57,3.3,4.34,3.71.23.06.37.29.31.52-.02.06-.04.12-.08.17-.26.31-.91.39-1.95.26-.24-.04-.5.04-.68.22-.4.39-.29,1.23.33,2.5.24.48.07,1.06-.39,1.34-2.28,1.4-3.43,2.11-3.45,2.13-.45.34-.56.97-.24,1.4.08.11.18.19.29.26.44.25.74.55.9.89.16.34.11.75-.12,1.05-.87,1.14-1.53,2.32-1.97,3.54-.2.56.09,1.17.64,1.37.15.05.31.07.47.06l.7-.07c.93-.1,1.7-.76,1.93-1.66l1.02-3.95c.11-.44.56-.71,1-.59.34.09.59.38.62.72l.37,3.69c.12,1.22,1.09,2.18,2.31,2.31l10.21,1.08c.59.06,1.13-.36,1.19-.96.03-.24-.03-.49-.16-.69-2.02-3.2-3.44-5.3-4.27-6.3-1.68-2.02-2.8-2.55-3.37-1.6-.09.14-.09.32,0,.47l2.11,3.65c.28.48.11,1.1-.37,1.38-.18.11-.4.15-.61.13l-2.28-.24c-.84-.09-1.49-.77-1.55-1.61-.06-.95-.46-2.17-1.2-3.68-.2-.4-.09-.89.26-1.17,1.65-1.32,2.91-2.45,3.78-3.4.54-.59.55-1.5.02-2.04-.23-.23-.53-.36-.85-.37-.83-.03-1.42-.46-1.77-1.27-.16-.37-.02-.8.33-1,2.65-1.51,6.05-3.94,6.84-7.12.11-.42-.15-.85-.58-.96-.1-.03-.21-.03-.31-.02-2.37.33-3.99,1.33-4.87,3-.09.17-.29.24-.47.18"/>
    <path class="cls-3" d="M160.44,15.25c-1.19.23-1.28.94-.29,2.12.44.52.37,1.31-.15,1.75-.13.11-.29.2-.46.24l-2.56.71c-.52.15-.83.68-.69,1.2.08.3.3.54.59.65l1.1.43c.43.17.92.11,1.29-.16l4.35-3.12c.74-.53.9-1.55.38-2.29-.18-.26-.44-.46-.74-.57l-2.33-.91c-.16-.06-.33-.08-.49-.05"/>
    <path class="cls-3" d="M90.21,42.76c-.08.25-.34.4-.59.33-.13-.04-.24-.13-.3-.26-2.07-4.66-3.27-7.02-2.12-12.18.32-1.44-.36-2.91-1.67-3.58l-2.56-1.32c-.74-.38-1.65-.09-2.03.65-.13.24-.18.52-.17.79.12,2.05.74,4.33,1.86,6.84.32.73.3,1.56-.07,2.27l-3.2,6.19c-.16.33-.03.72.29.88.03.02.06.03.09.04,1.99.64,3.52.27,4.57-1.1.24-.31.68-.36.98-.12.08.06.14.14.19.22,1.31,2.45,3.09,5,3.14,6.84.08,2.85-.79,5.24-2.6,7.16-.6.63-.58,1.63.05,2.23.35.33.83.49,1.3.43,2.36-.31,3.58-1.81,3.67-4.51,0-.31.26-.55.57-.55.22,0,.41.13.5.33.54,1.14,1.46,2.34,2.76,3.6.44.43,1.14.42,1.57-.02.31-.32.4-.79.24-1.2-.62-1.58-1.64-3.27-3.05-5.07-2.75-3.52-1.9-6.95-.7-10.53.1-.29.41-.44.7-.34.11.04.21.11.27.2l2.23,3.11c.3.42.21.99-.2,1.29,0,0,0,0-.01,0l-1.28.92c-.69.49-.86,1.44-.4,2.13,1.33,2,2.52,3.27,3.59,3.81.59.3,1.29.29,1.87-.04,1.86-1.04,3.49-2.4,4.88-4.07.35-.41.92-.55,1.41-.35,3.47,1.42,5.25,1.17,5.35-.76.04-.73-.44-1.39-1.16-1.58l-4.11-1.06c-.33-.09-.59-.33-.7-.64-.34-.97-.46-2.5-1.07-3.27-2.16-2.75-4.37-1.59-6.26.54-.42.47-1.14.52-1.61.1-.12-.1-.21-.23-.28-.37l-2.06-4.44c-.12-.25-.18-.52-.17-.8.05-1.95.11-4.64.2-8.07.03-.86-.72-2.32-2.23-4.39-.16-.22-.4-.38-.68-.43-1-.19-1.93-.18-2.8.03-.32.07-.57.34-.61.68-.17,1.43-.2,2.46-.11,3.1.35,2.26,2.13,4.95,2.66,7.21.73,3.1.69,6.14-.14,9.12"/>
    <path class="cls-3" d="M201.57,36.35c.09.19.02.42-.16.53-5.92,3.53-10.28,9.09-13.83,15.44-.46.83-.16,1.87.67,2.32.08.05.17.08.25.12l.21.07c1.07.39,2.25-.17,2.64-1.24,0,0,0-.01,0-.02.34-.97.78-1.76,1.32-2.39.58-.68,1.13-.91,1.66-.68.31.13.58.56.83,1.28.33.97-.19,2.02-1.16,2.34-.13.04-.26.07-.4.09l-1.6.16c-.53.05-.91.52-.86,1.05.02.18.09.36.2.5,2.47,3.13,5.68,3.84,9.62,2.11.31-.14.51-.45.52-.79,0-.8-.38-1.61-1.15-2.43-.17-.18-.21-.45-.1-.67l4.08-7.9c.33-.65.08-1.45-.57-1.78-.02,0-.04-.02-.06-.03-1.18-.54-2.6-.71-4.25-.52-.6.06-1.15-.37-1.21-.97-.02-.18,0-.36.07-.52.62-1.57,1.69-1.73,3.22-.47.43.36,1.08.3,1.44-.14,0-.01.02-.02.02-.03,1.85-2.43,4.11-4.06,6.78-4.88.73-.23,1.14-1.01.91-1.74-.03-.1-.08-.21-.13-.3-.94-1.56-2.24-2.3-3.89-2.21-4.11.21-7.86,1.4-11.26,3.58-.09.07-.22.06-.31-.01l-.24-.17c-.2-.14-.24-.42-.09-.62.02-.03.05-.06.08-.08,2.16-1.71,3.9-3.26,5.21-4.64.85-.88.99-2.15.33-2.96-.18-.23-.74-.45-1.67-.66-3.05-.71-6.13-.9-9.24-.58-.89.09-1.44.23-1.65.4-.48.4-.51,1.13-.07,1.64.09.1.19.19.3.25,1.23.75,2.26,1.39,3.09,1.94.3.2.67.26,1.01.16l3-.83c.27-.08.54.07.62.34.04.15.01.31-.08.44l-1.95,2.64c-.4.54-1.17.65-1.71.25-.27-.2-.44-.5-.48-.83-.13-1.03-.62-1.58-1.48-1.64-.38-.02-.73.19-.89.54-1.02,2.35-2.67,4.67-4.95,6.95-6.15,6.15-9.46,9.5-9.94,10.03-.6.68-.53,1.72.15,2.32.15.13.31.23.49.3l1.68.66c.97.38,2.07-.03,2.56-.96l1.5-2.9c.12-.24.41-.33.65-.2.12.06.21.18.25.31l.86,3.49c.07.27.17.53.32.77.98,1.56,1.96,1.77,2.95.64,2.02-2.31,3.85-5.22,5.49-8.75,1.12-2.42,1.94-3.86,2.46-4.31,1.21-1.07,3.63-2.44,7.26-4.12.23-.11.51,0,.62.22l.05.09"/>
    <path class="cls-3" d="M118.57,38.63l4.91-.5c.19-.02.37-.12.48-.28l4.95-6.68c.33-.45.23-1.09-.22-1.43-.19-.14-.42-.21-.66-.19-.93.06-1.71.37-2.33.94-2.91,2.67-5.47,4.97-7.67,6.89-.3.25-.34.7-.09,1,.15.18.39.28.63.25"/>
    <path class="cls-3" d="M121.89,48.29c.13.19.34.32.58.36,3.13.49,6.44-.3,4.58-4.52-.56-1.28-.15-2.37,1.22-3.26.64-.42.87-1.23.52-1.82-.07-.12-.16-.22-.27-.31-.38-.3-3.39.64-5.18.97-.14.03-.28.09-.39.18l-5.13,3.97c-.33.26-.4.73-.14,1.07.1.14.25.23.42.27l1.4.36c.58.15,1.2-.01,1.63-.43.65-.63,1.32-1.08,1.99-1.35.45-.19.97.03,1.16.48l.26.64c.18.44.02.94-.38,1.19-.46.27-1.3.38-2.51.33-.3-.02-.56.21-.58.52,0,.13.03.25.1.35l.72,1"/>
    <path class="cls-3" d="M71.17,57.82c.69.61,1.69,1.63,2.98,3.06,2.11,2.33,4.76,4.28,7.94,5.83.37.18.81.03.99-.34.05-.1.08-.21.08-.33,0-.3-.11-.56-.36-.79-4.27-3.93-7.87-7.41-10.79-10.45-1.38-1.44-2.39-2.73-2.11-5.03.19-1.53,0-2.9-.54-4.12-.23-.52-.84-.75-1.36-.51-.11.05-.22.12-.31.21l-1.31,1.3c-.27.27-.71.28-.98,0,0,0,0,0,0,0l-5.37-5.37c-.29-.3-.78-.3-1.08,0-.17.17-.25.4-.22.63.5,4.58,4.46,7.74,7.29,10.57.28.28.49.6.64.96,1.5,3.58-.15,8.11-.32,11.3-.04.72-.66,1.28-1.38,1.24-.56-.03-1.04-.42-1.19-.96l-1.9-6.82c-.24-.88-1.15-1.39-2.03-1.15,0,0,0,0-.01,0l-1.22.34c-.59.16-1.22.15-1.81-.05-1.4-.47-2.36-.52-2.89-.16-.18.13-.43.09-.56-.1-.06-.09-.09-.2-.07-.3.04-.25.78-1.92,2.21-5.01,1.47-3.17-1.16-5.03-3.82-4.92-.35.02-.62.31-.6.66,0,.07.02.13.04.19,1.15,3.12-.15,6.79-.88,9.93-.07.32.13.64.45.72.1.02.2.02.3,0l1.12-.31c.4-.11.82,0,1.11.29l3.18,3.18c.62.62.96,1.46.95,2.34-.05,3.5.36,6.51,1.23,9.03.14.41.59.63,1.01.48.25-.09.44-.3.51-.55.43-1.68.49-3.31.18-4.88-.05-.25.12-.49.37-.53.18-.03.37.05.47.2,1.01,1.65,1.78,3.78,2.3,6.39.42,2.09,1.43,3.32,3.62,2.28.76-.36.99-1.21,1.39-1.51.36-.27.86-.26,1.22.02,1.5,1.17,2.59,1.68,3.26,1.54.52-.11.78-.69.58-1.3-.06-.19-.16-.37-.3-.52-1.42-1.59-5.94-4.7-6.12-7.78-.02-.38.17-.75.51-.93,2.76-1.51,3.64-3.95,2.65-7.34-.09-.32.09-.65.41-.74.19-.06.4-.01.55.12"/>
    <path class="cls-3" d="M58.39,53.81c.81-.13,1.49,0,2.04.39.29.21.51.5.62.84.68,2.08,2.11,2.53,4.29,1.36.76-.4,1.09-1.33.73-2.08-.16-.34-.46-.6-.82-.72-1.41-.46-2.31-1.36-2.71-2.69-.26-.85-1.09-1.39-1.85-1.2-.18.05-.35.13-.5.25-1.37,1.13-2.15,2.24-2.34,3.31-.04.26.13.5.39.54.05,0,.1,0,.15,0"/>
    <path class="cls-3" d="M228.7,66.67c-.07-.01-.69-.25-1.87-.7-.46-.18-.95-.27-1.45-.27-1.95,0-3.72-.43-5.33-1.26-.96-.49-2.12-.55-3.06-.35-.67.14-1.1.79-.97,1.46.05.24.17.46.34.63l2.62,2.62c.18.18.19.47.01.65-.11.12-.28.16-.43.13-3.27-.68-6.81-2.1-10.62-4.26-.4-.22-.91-.08-1.13.33-.02.04-.04.08-.05.11l-.1.41c-.11.44.1.9.5,1.1l5.51,2.85c.35.18.49.6.31.95-.09.18-.26.31-.45.37-1.71.47-3.42.8-3.74,2.52-.13.72.32,1.42,1.03,1.61,2.08.55,3.16.83,3.23.86.41.17.6.64.43,1.05-.03.08-.08.16-.14.22-1.81,2.01-1.47,3.55,1,4.63.56.25,1.21,0,1.45-.56.02-.05.04-.11.06-.17l.81-3.12c.09-.35.45-.57.81-.48.12.03.23.09.31.18,1.5,1.51,3.11,1.87,4.84,1.08.84-.38,1.15-1.45.68-2.38-.09-.17-.19-.33-.32-.47-.52-.59-1.26-1.12-2.23-1.6-.44-.22-.63-.75-.41-1.19.11-.23.32-.4.57-.47l1.88-.52c.42-.11.66-.55.54-.97-.01-.05-.03-.09-.05-.13-.78-1.63-1.9-3.56-1.48-4.02.34-.37.7-.39,1.08-.06,2.46,2.18,5.19,3.8,8.19,4.87.33.12.7-.04.82-.38.04-.09.05-.19.04-.29l-.25-2.52c-.03-.26.17-.5.43-.52.06,0,.11,0,.17.01l4.94,1.28c.47.12.95-.17,1.07-.63.04-.15.03-.3,0-.45l-.42-1.49c-.12-.45,0-.93.34-1.27l3.47-3.48c.61-.61.72-1.57.25-2.3l-.15-.24c-.4-.7-1.28-.95-1.98-.56-.12.07-.23.15-.33.25l-4.94,5.03c-.81.83-2.07,1.03-3.1.49l-4.84-2.5c-.66-.34-.92-1.16-.58-1.81.1-.19.24-.35.41-.48l3.88-2.78c.17-.12.3-.3.35-.51.71-2.85-.04-4.85-2.25-5.99-.31-.16-.69-.04-.85.27-.09.17-.09.37-.02.55.91,2.06.49,3.64-1.25,4.75-1.44.91-2.89,1.8-4.34,2.69-.31.19-.73.1-.92-.22-.03-.06-.06-.12-.08-.18-1.03-3.86-3.62-5.32-7.77-4.39-.85.19-1.4.45-1.64.77-.6.8-.38,1.96.5,2.58.19.14.41.24.64.31,2.27.65,3.8,1.07,4.59,1.28.38.1.7.38.86.75.27.65.41,1.23.44,1.72.03.8.79,1.4,1.69,1.34.11,0,.23-.03.34-.05,1.59-.4,2.7-.64,4.23.36.91.6,2.28,1.4,4.09,2.39.14.09.19.28.1.43-.06.1-.18.16-.3.14"/>
    <path class="cls-3" d="M227.76,140.44c0-48.23-39.1-87.33-87.33-87.33s-87.33,39.1-87.33,87.33c0,48.23,39.1,87.33,87.33,87.33s87.33-39.1,87.33-87.33"/>
    <path class="cls-3" d="M43.11,101.31c2.04-1.24.66-4.17.18-5.87-.14-.48-.11-.99.07-1.45.21-.51.52-1.01.93-1.49.24-.28.29-.68.1-.99l-.77-1.34c-.13-.22-.13-.48,0-.7.48-.79.96-1.34,1.45-1.65.31-.19.72-.1.91.2.05.08.08.17.09.26.05.42.03,1.02-.06,1.81-.07.52.06.88.37,1.08.37.24.78.4,1.25.47.34.05.66.21.91.46.41.4.81.64,1.2.72.35.08.71.02,1.02-.15,4.49-2.6,7.44-4.3,8.83-5.11,2.18-1.28.45-3.77-1.13-4.66-7.27-4.07-13.51-9.02-18.7-14.83-.6-.67-1.62-.74-2.3-.15-3.14,2.72-1.87,5.62-1.17,9.04.07.35-.16.69-.51.76-.12.02-.25.01-.37-.03-2.69-1.07-5.19-.5-7.52,1.69-.35.32-.37.87-.04,1.22.13.14.32.24.51.26,2.56.35,5.44,1.39,5.64,4.43.23,3.55,0,6.53-.66,8.95-.13.47.14.95.61,1.09.3.08.62,0,.84-.21,1.79-1.68,2.63-3.75,2.51-6.2-.03-.46.31-.86.78-.9.38-.03.73.2.85.56,1.58,4.22,1.11,8.59,3.47,12.62.16.27.17.61.01.88-.27.47-.3.95-.11,1.44.08.21.22.38.41.48l4.51,2.57c.21.12.44.18.68.19,1.25.03,2.17-.12,2.77-.45.67-.38.89-1.26.48-1.96-.08-.13-.17-.25-.29-.36-1.79-1.68-4.34-2.45-7.64-2.31-.11,0-.2-.08-.2-.2,0-.07.03-.14.09-.17"/>
    <path class="cls-3" d="M239.07,90.7c-.15-.01-.29.1-.31.25-.01.11.04.21.14.26l7.01,4.29c.16.1.34.17.53.21,1.05.21,2.08.22,3.1.04.7-.12,1.17-.79,1.05-1.5,0-.01,0-.03,0-.04-.26-1.31-.83-2.41-1.72-3.3-.27-.27-.27-.7,0-.98.03-.03.06-.05.09-.07l2.58-1.85c.35-.24.77-.35,1.19-.3l4.42.54c.78.1,1.49-.46,1.59-1.24,0,0,0-.02,0-.03l.03-.25c.07-.71-.44-1.35-1.15-1.43-.1-.01-.21,0-.31,0-2.9.39-5.72.26-8.45-.41-.3-.08-.61.11-.7.42l-.56,2.16c-.12.45-.58.72-1.03.61l-5.88-1.52c-.21-.06-.34-.28-.28-.49.02-.08.06-.14.12-.19,1.55-1.32,2.44-2.95,2.66-4.9.03-.23-.14-.44-.37-.47-.01,0-.02,0-.03,0-.49-.03-.99.23-1.48.76-.99,1.07-1.77,2.55-2.34,4.43-.07.24-.32.38-.56.31-.02,0-.04-.01-.05-.02-1.17-.5-1.91-1.27-2.23-2.32-.14-.44-.61-.69-1.05-.55-.12.04-.24.1-.33.19-.79.76-1.32,1.79-1.58,3.09-.05.26.12.51.38.56.03,0,.07,0,.1,0,1.11-.01,2.85.36,5.23,1.11,1,.32,1.61,1.27,1.36,2.13-.03.09-.06.19-.11.27-.1.18-.45.25-1.04.21"/>
    <path class="cls-3" d="M243.15,95.79l-11.72-6.9s0,0,0,0l-.02.03c-1.09,1.86.55,4.85,3.67,6.69,0,0,0,0,0,0l.44.25c3.12,1.84,6.54,1.82,7.63-.03v-.02s.02,0,.02-.01c0,0,0,0,0,0"/>
    <path class="cls-3" d="M233.81,99.11l-2.5-4.08c-.07-.11-.15-.19-.25-.26l-5.46-3.75c-.33-.22-.78-.13-1,.2-.06.08-.09.18-.11.27l-.08.51c-.16.96.23,1.92,1.01,2.5l2.27,1.68c.35.26.42.75.17,1.1-.03.05-.07.09-.12.13-.52.45-1.15.57-1.9.34-.3-.09-.54-.29-.69-.55l-1.33-2.29c-.16-.27-.5-.36-.76-.21-.1.05-.17.14-.22.24-.87,1.76.24,4.33,1.37,5.81.39.52,1.11.67,1.67.34l3.07-1.78c.32-.18.7-.2,1.04-.07l2.8,1.09c.43.17.92-.05,1.09-.48.09-.24.07-.52-.07-.74"/>
    <path class="cls-3" d="M38.1,120.16c-.21.51.03,1.1.54,1.31.43.18.93.03,1.2-.35l4.1-5.53c.47-.64.41-1.52-.15-2.08-1.34-1.35-3.23-2.13-5.01-2.31-5.5-.57-10.3-1.52-14.39-2.85-.76-.24-1.4-.76-1.81-1.46l-1.92-3.32c-.47-.81-1.51-1.1-2.32-.63-.06.04-.12.08-.18.12-1.99,1.5-1.11,2.84-.22,5.19,2.14,5.64,3.92,10.11,5.33,13.4.28.66.98,1.04,1.69.92h.05c.56-.13.92-.69.79-1.25,0-.02,0-.03-.01-.05l-2.47-8.86c-.16-.56.17-1.15.73-1.31.13-.04.26-.05.39-.03l3.96.42c.3.04.51.3.48.59-.01.12-.07.24-.17.33-.39.36-.86.66-1.43.9-.79.34-1.18,1.23-.89,2.04.83,2.34,2.69,5.97,5.13,6.73,1.37.43,3.06.19,5.06-.72.4-.19.58-.66.39-1.06,0-.02-.02-.04-.03-.06l-3.33-5.76c-.23-.39-.09-.88.29-1.11.22-.13.48-.14.71-.05l4.02,1.57c.73.28,1.09,1.11.81,1.84,0,0,0,0,0,0l-1.34,3.43"/>
    <path class="cls-3" d="M252.9,126.63c1.63,1.71,6.35,5.61,8.67,4.82.78-.27,1.07-1.23.65-2.13-.11-.25-.28-.48-.47-.67-1.67-1.62-3.75-2.64-4.86-4.55-.39-.67-1.16-1.23-2.32-1.68-.31-.12-.46-.47-.33-.78.06-.14.16-.25.3-.32l4.86-2.2c1.11-.5,2.41-.31,3.32.49,1.24,1.07,2.7,1.74,4.39,2,.45.07.86-.25.93-.69.04-.29-.08-.59-.31-.77-1.28-.99-2.17-2.13-2.68-3.43-.21-.52-.56-.98-1.01-1.31l-7.98-5.91c-.72-.54-1.74-.39-2.28.34-.15.21-.26.45-.3.7l-.37,2.21c-.06.35-.38.6-.73.57-5.77-.43-12.01-.14-18.74.88-2.03.31-3.18,1.18-3.45,2.61-.09.45.15.91.58,1.1,1.35.61,3,.88,4.95.81,2.33-.08,4.85-2.68,7.69-2.41,2.47.24,5.43.67,8.9,1.29.24.04.48-.02.67-.15l3.15-2.26c.41-.3.97-.29,1.38,0l.6.44c.22.16.27.47.11.68-.05.06-.11.12-.18.15l-5.17,2.52c-.11.05-.21.13-.29.22l-1.88,2.25c-.28.33-.32.81-.1,1.2l.83,1.44c.13.21.05.49-.16.62-.11.06-.23.08-.35.04-.81-.23-1.49-.93-2.03-2.1-.26-.57-.94-.81-1.51-.55-.06.03-.12.06-.18.11l-1.33.95c-.14.11-.33.11-.47,0l-3.74-2.76c-.39-.3-.95-.22-1.25.18,0,0,0,0,0,0l-.77,1.04c-.19.26-.51.39-.83.34l-3.34-.5c-.77-.11-1.49.42-1.6,1.19-.01.09-.02.18-.01.27v.22c.05.96.85,1.72,1.82,1.72,1.16,0,2.65-.02,4.46-.03.39,0,.69.13.88.38.28.39.16.94-.27,1.24-.09.06-.18.1-.28.13-1.95.56-3.16.99-3.63,1.29-.99.64-1.49,1.81-1.27,2.96l1.81,9.6c.13.73.84,1.22,1.57,1.08.34-.06.64-.25.85-.53l5.59-7.55c.27-.35.2-.86-.16-1.12-.28-.21-.67-.21-.96-.01l-3.07,2.2c-.42.31-1.02.22-1.33-.21-.08-.11-.13-.23-.16-.36l-.38-1.81c-.18-.82.19-1.67.92-2.09l3.96-2.28c.53-.31,1.21-.18,1.6.3.92,1.17,2.13,2.03,3.63,2.58.72.27,1.52-.1,1.78-.82.05-.15.08-.3.09-.46.01-.85.28-1.72.79-2.63.13-.24.44-.33.67-.2.05.03.09.06.13.1"/>
    <path class="cls-3" d="M12.69,124.17c-.14.33.02.71.35.85.14.06.29.06.44.02,2.37-.72,4.93-.98,7.66-.77.44.03.82-.3.86-.74.01-.16-.03-.32-.11-.46-1.11-1.86-2.52-2.75-4.24-2.68-1.77.07-4.29,2.15-4.96,3.78"/>
    <path class="cls-3" d="M258.81,123.62c.83,2.26,3.48,4.05,4.88,5.19.82.67,2.02.54,2.69-.27.14-.17.25-.37.32-.58.19-.52.2-1.56.03-3.13-.04-.37-.31-.66-.67-.72-.85-.15-1.48.28-1.87,1.27-.15.38-.59.57-.97.42-.16-.06-.29-.18-.37-.32-.9-1.56-1.83-2.56-2.79-3.01-.46-.21-1.01-.01-1.22.45-.1.22-.11.47-.03.7"/>
    <path class="cls-3" d="M37.18,131.18l-7.38-7.38c-.63-.63-1.65-.63-2.28,0,0,0,0,0,0,0l-2.28,2.28c-.31.31-.32.82,0,1.13.12.12.28.2.45.23,3.34.52,6.31,1.69,8.9,3.51,5.13,3.61,8.06,5.69,8.77,6.23,1.08.82,2.23,1.36,3.46,1.61.8.17,1.59-.36,1.76-1.17,0-.02,0-.04.01-.07.1-.63-.06-1.17-.47-1.62-4.11-4.5-8.85-8.68-14.23-12.53-.26-.19-.63-.13-.82.14-.06.08-.09.18-.11.27l-.03.3c-.03.43.12.84.42,1.14l5.03,5.03c.15.15.15.39,0,.53l-.37.37c-.23.23-.6.23-.83,0"/>
    <path class="cls-3" d="M47,197.56c2.27-.19,4.52-2.28,3.54-4.68-2.52-6.15-10.39-1.33-12.47,1.97-.71,1.13-.62,2.59.23,3.62,2.09,2.55,4.38,2.72,6.85.49.29-.26.31-.71.05-1-.17-.19-.43-.27-.68-.22l-2.6.56c-.81.18-1.61-.34-1.78-1.16-.08-.37-.01-.76.18-1.09,1.41-2.34,3.44-3.66,6.07-3.97.97-.12,1.84.59,1.94,1.57.06.53-.12,1.06-.49,1.44-.23.24-.63.86-1.22,1.87-.11.19-.05.44.14.55.07.04.15.06.24.05"/>
    <path class="cls-3" d="M228.46,198.3c.81-.01,1.53-.48,2.16-1.41.26-.38.77-.51,1.18-.3l8.79,4.54c.32.16.71.04.87-.28.02-.04.04-.09.05-.13l.07-.27c.15-.59-.12-1.2-.65-1.49l-7.99-4.29c-.31-.17-.45-.54-.33-.87l.66-1.89c.15-.43-.08-.9-.5-1.05-.07-.03-.15-.04-.23-.04h-.06c-.61,0-1.17.32-1.47.85l-3.15,5.62c-.18.33-.06.74.26.92.1.06.22.09.34.09"/>
    <path class="cls-3" d="M54.97,199.99c-1.29-1.72-3.73-2.08-5.46-.79l-4.42,3.31c-1.72,1.29-2.08,3.73-.79,5.46l.32.43c1.29,1.72,3.73,2.08,5.46.79l4.42-3.31c1.72-1.29,2.08-3.73.79-5.46l-.32-.43"/>
    <path class="cls-3" d="M225.74,205.15c-.39-.66-.16-1.52.51-1.9.1-.06.21-.11.33-.14l2.62-.73c.31-.09.49-.42.4-.73-.04-.13-.12-.24-.23-.32-3.99-2.71-8.71,3.18-3.89,6.59.8.57,1.86.61,2.71.12l3.36-1.94c.7-.41,1.6-.16,2.01.54.06.11.11.22.14.34l.09.32c.24.86-.26,1.76-1.12,2-.09.03-.18.04-.28.05l-2.03.21c-.53.05-.92.52-.87,1.05.02.2.1.39.24.54,2.07,2.41,4.76.03,6.04-1.85,1.72-2.54-.84-5.33-3.24-5.71-.41-.06-.84.01-1.2.22l-3.74,2.16c-.57.33-1.29.14-1.62-.43,0,0,0,0,0,0l-.23-.39"/>
    <path class="cls-3" d="M54.72,219.68c.37-.3.43-.85.13-1.23l-2.88-3.54c-.31-.37-.26-.92.11-1.23,0,0,.01,0,.02-.01l7.12-5.8c.5-.41.62-1.14.26-1.68l-.15-.25c-.19-.29-.58-.37-.87-.17-.02.01-.03.02-.05.03l-9.19,7.49c-.34.28-.4.78-.12,1.12,0,0,0,0,0,0l4.41,5.42c.22.27.63.31.9.09l.31-.25"/>
    <path class="cls-3" d="M228.34,219.03c.38-.46.33-1.14-.13-1.52l-8.89-7.51c-.46-.38-1.14-.33-1.52.13l-.03.03c-.38.46-.33,1.14.13,1.52h0l8.89,7.51c.46.38,1.14.33,1.52-.13h0s.03-.03.03-.03"/>
    <path class="cls-3" d="M62.72,227.69c.34-.34.34-.9,0-1.25l-3.26-3.26c-.35-.34-.35-.9-.02-1.24,0,0,.01-.01.02-.02l6.56-6.57c.46-.47.5-1.21.09-1.72l-.18-.23c-.23-.27-.63-.31-.9-.08-.01.01-.03.02-.04.03l-8.47,8.48c-.32.32-.32.83,0,1.15,0,0,0,0,0,0l5,5c.25.25.65.25.91,0l.29-.29"/>
    <path class="cls-3" d="M214.83,221.31c-1.2,1.15-2.7.49-4.5-1.98-.33-.45-.97-.55-1.43-.21-.3.22-.46.59-.4.96.08.58.51,1.22,1.3,1.92.8.71,3.08,3.02,6.84,6.92.39.41,1,.54,1.53.32l.03-.02c.41-.18.6-.65.43-1.06-.02-.04-.04-.09-.07-.13-.48-.71-1.29-1.58-2.44-2.59-1.06-.94-1.08-1.9-.07-2.87,1.01-.97,1.96-.91,2.86.19.97,1.19,1.8,2.03,2.49,2.54.36.26.87.18,1.13-.18.03-.04.06-.09.08-.14l.02-.03c.24-.52.13-1.13-.26-1.54-3.75-3.91-5.97-6.27-6.65-7.1-.67-.81-1.3-1.27-1.87-1.38-.55-.11-1.09.25-1.2.8-.08.38.07.77.38,1.01,2.4,1.89,3,3.42,1.8,4.57"/>
    <path class="cls-3" d="M64.8,230.9l5.31,3.93c.28.21.68.15.89-.13l.25-.34c.28-.37.2-.9-.17-1.18,0,0,0,0,0,0l-3.25-2.41c-.35-.25-.43-.75-.18-1.11,0,0,0,0,0,0l1.34-1.81c.3-.41.87-.49,1.28-.19h0l3.13,2.32c.18.14.44.1.58-.09,0,0,0,0,0,0l.2-.27c.38-.51.27-1.24-.24-1.62l-1.98-1.46c-.68-.5-.85-1.44-.39-2.15l.3-.45c.35-.54,1.08-.7,1.62-.34.02.01.04.03.06.04l3.26,2.42c.34.24.82.16,1.06-.19.19-.27.18-.62,0-.88-1.26-1.63-2.85-3.07-4.76-4.32-.56-.37-1.32-.23-1.72.31l-6.71,9.07c-.2.27-.14.65.13.86h0"/>
    <path class="cls-3" d="M82.27,234.88c-.59-.51-1.24-.81-1.93-.9-.42-.06-.8.23-.86.65-.02.14,0,.28.06.41.39.89.58,1.51.57,1.88-.03.85-.77,1.49-1.65,1.44-.25-.01-.5-.08-.72-.2-3.11-1.7,1.33-6.66,2.85-7.85.62-.48,1.51-.38,1.99.24.17.21.27.46.3.73l.29,2.86c.02.25.24.43.49.4.11-.01.2-.06.28-.13,2.08-2.18,1.59-4.78-.95-6.27-3.59-2.1-7.78,4.81-8.61,7.24-.41,1.19,0,2.51,1.01,3.26l3.41,2.52c.48.36,1.16.26,1.52-.22.03-.05.07-.1.09-.15l2.18-4.23c.29-.56.16-1.26-.32-1.68"/>
    <path class="cls-3" d="M207.84,230.69c.01-1.14-1-2.07-2.25-2.09-1.26-.02-2.29.89-2.31,2.03-.01,1.14,1,2.07,2.25,2.09,1.26.02,2.29-.89,2.3-2.03"/>
    <path class="cls-3" d="M195.57,236.58c.16.27.06.62-.21.78-.19.11-.43.1-.61-.03l-5.14-3.6c-.5-.35-1.19-.23-1.55.27-.14.19-.21.43-.2.66,0,.29.09.57.26.84,2.07,3.33,3.84,6.36,5.31,9.09.22.42.64.7,1.11.75l.56.06c.42.04.79-.26.83-.68.02-.16-.02-.32-.09-.45l-3.04-5.26c-.06-.1-.05-.23.02-.33l.29-.4c.06-.08.18-.1.27-.03,0,0,0,0,0,0l5.17,4.01c.64.49,1.56.37,2.05-.26.18-.24.29-.52.3-.82,0-.07-.16-.4-.5-1-1.01-1.78-2.91-4.85-5.71-9.21-.25-.39-.75-.51-1.14-.28l-.37.21c-.36.21-.49.67-.28,1.04,0,0,0,0,0,0l2.67,4.64"/>
    <path class="cls-3" d="M82.65,243.07c-.11.21-.03.47.18.58l6.69,3.45c.21.11.47.03.58-.18.05-.09.06-.19.04-.29l-.33-1.53c-.03-.12-.11-.23-.22-.29l-4.23-2.19c-.21-.11-.3-.37-.19-.58.01-.02.02-.04.04-.06l1.79-2.42c.13-.17.36-.22.55-.12l3.86,2c.21.11.47.02.58-.19.02-.05.04-.1.04-.15l.12-1.12c.02-.17-.08-.34-.23-.42l-3.68-1.9c-.21-.11-.29-.37-.18-.58l1.15-2.25c.11-.21.37-.29.58-.18l4.34,2.23c.21.11.47.02.58-.19.02-.05.04-.1.04-.15l.13-1.21c.02-.17-.08-.34-.23-.42l-5.77-2.98c-.21-.11-.47-.03-.58.18l-5.65,10.96"/>
    <path class="cls-3" d="M187.28,238.36c-1.01-1.92-3.38-2.65-5.3-1.64l-.41.21c-1.92,1.01-2.65,3.38-1.64,5.3l2.51,4.76c1.01,1.92,3.38,2.65,5.3,1.64l.41-.21c1.92-1.01,2.65-3.38,1.64-5.3h0l-2.51-4.76"/>
    <path class="cls-3" d="M103.04,252.76c2.36.84,5.3-1.37,6.58-4.94h0c1.28-3.57.41-7.15-1.95-7.99h0c-2.36-.84-5.3,1.37-6.58,4.94s-.41,7.15,1.95,7.99h0"/>
    <path class="cls-3" d="M174.15,240.71c-.2-.57-.82-.87-1.39-.67h-.04c-.57.21-.87.83-.67,1.4h0l3.71,10.72c.2.57.82.87,1.39.67h.04c.57-.21.87-.83.67-1.4,0,0,0,0,0,0l-3.71-10.72"/>
    <path class="cls-3" d="M118.54,249.98c.16-.63-.22-1.27-.84-1.43l-2.18-.56c-.72-.19-1.15-.92-.97-1.64l.22-.85c.16-.59.76-.94,1.34-.79l4.39,1.13c.3.08.62-.1.7-.4,0,0,0,0,0,0l.1-.43c.16-.58-.19-1.18-.78-1.34,0,0,0,0,0,0l-5.76-1.49c-.72-.18-1.46.25-1.64.97,0,0,0,0,0,0l-2.78,10.76c-.13.5.17,1,.67,1.13l.36.09c.6.15,1.21-.2,1.37-.8l1.01-3.92c.12-.47.6-.75,1.07-.63.03,0,.07.02.1.03l2.67,1.04c.32.13.69-.03.82-.36,0-.02.02-.05.02-.07l.12-.44"/>
    <path class="cls-3" d="M165.12,243.22l.63,2.95c.19.86-.36,1.72-1.23,1.91,0,0,0,0-.01,0l-.83.18c-.56.12-1.11-.23-1.23-.78,0,0,0,0,0,0l-.56-2.6c-.12-.59-.57-1.06-1.16-1.22l-.55-.14c-.36-.09-.72.13-.81.49-.02.1-.03.2,0,.29l2.45,11.41c.04.16.13.31.25.42.52.45,1.2.49,2.03.1.41-.19.58-.67.39-1.08,0-.01-.01-.03-.02-.04-.97-1.81-1.29-3.22-.98-4.21.29-.91,1.27-1.41,2.18-1.11.58.19,1.01.66,1.15,1.25l.79,3.45c.13.57.69.92,1.25.8l.42-.09c.47-.1.77-.57.67-1.04l-2.37-11.04c-.12-.58-.69-.95-1.27-.82,0,0,0,0,0,0l-.66.14c-.36.07-.59.42-.51.78,0,0,0,0,0,0"/>
    <path class="cls-3" d="M157.35,247.68c-.29-2.35-1.76-3.43-4.43-3.22-.5.04-1.29.62-2.38,1.74-3.17,3.29,1.93,5.24,4.39,6.03.72.23,1.21.58,1.46,1.03.13.23.07.77-.19,1.61-.26.84-1.16,1.3-1.99,1.04-.24-.08-.47-.21-.65-.39l-1.96-1.96c-.22-.22-.57-.25-.83-.08-.67.45-.64,1.21.09,2.27,3.49,5.08,11.06-.09,6.53-4.45-.35-.33-1.87-1.03-4.55-2.08-.68-.27-1.01-1.03-.74-1.72.02-.04.03-.08.05-.12l.21-.4c.25-.47.82-.65,1.28-.41l3.05,1.58c.23.11.5.02.62-.21.04-.08.06-.17.04-.26"/>
    <path class="cls-3" d="M136.08,251.95c.05-.65-.43-1.23-1.08-1.28l-2.26-.18c-.74-.06-1.29-.71-1.24-1.45l.07-.88c.05-.61.58-1.07,1.19-1.02l4.55.37c.31.03.59-.2.62-.52,0,0,0,0,0,0l.03-.44c.05-.6-.4-1.14-1.01-1.19l-5.97-.49c-.75-.06-1.4.5-1.46,1.24l-.9,11.14c-.04.51.34.96.85,1,0,0,0,0,0,0l.37.03c.62.05,1.17-.41,1.22-1.02,0,0,0,0,0,0l.33-4.05c.04-.49.47-.85.95-.81.03,0,.07,0,.1.01l2.82.57c.34.07.68-.15.75-.49,0-.02,0-.05.01-.08l.05-.45"/>
    <path class="cls-3" d="M143.74,254.27c.78-.02,1.53.93,2.24,2.84.24.65.47,1.03.7,1.16.43.25.89.3,1.38.16.32-.09.52-.43.43-.75,0,0,0-.01,0-.02-1.54-4.81-2.78-8.61-3.72-11.42-.22-.65-.65-.96-1.29-.94-.65.02-1.06.36-1.23,1.02-.77,2.85-1.78,6.73-3.03,11.62-.08.33.12.66.45.74,0,0,0,0,.01,0,.49.11.95.03,1.37-.24.22-.14.43-.54.63-1.2.6-1.95,1.29-2.94,2.07-2.97"/>
    <path class="cls-3" d="M126.65,23.89l-1.01-1.03c-.12-.12-.31-.12-.42,0,0,0,0,0,0,0l-.37.37c-1.34,1.31-2.15,2.66-1.81,3.02l.18.19c.35.35,1.71-.44,3.06-1.76,0,0,0,0,0,0l.37-.37c.12-.11.12-.3,0-.42"/>
    <path class="cls-3" d="M156.35,34.37c.16.11.49-.09.74-.44.25-.36.33-.73.17-.85h0c-.16-.11-.49.09-.74.44-.25.36-.33.73-.17.85h0"/>
    <path class="cls-3" d="M92.81,29.09c0-.29-.24-.53-.53-.53s-.53.24-.53.53.24.53.53.53.53-.24.53-.53"/>
    <path class="cls-3" d="M99.9,44.91c.47.29,1.2-.04,1.62-.74,0,0,0,0,0,0,.42-.69.38-1.49-.09-1.78h0c-.47-.29-1.2.04-1.62.74,0,0,0,0,0,0-.42.69-.38,1.49.09,1.78h0"/>
    <path class="cls-3" d="M99.55,48.21c0-.54-.44-.98-.98-.98h0c-.54,0-.98.44-.98.98h0c0,.54.44.98.98.98s.98-.44.98-.98"/>
    <path class="cls-3" d="M187.81,40.62c.45.34,1.41-.2,2.16-1.19.75-.99.99-2.07.55-2.4-.45-.34-1.41.2-2.16,1.19-.75.99-.99,2.07-.55,2.4"/>
    <path class="cls-3" d="M186.97,42.48l-1.77-.84c-.36-.18-.8-.03-.98.33,0,0,0,0,0,0l-.38.81c-.83,1.72-.88,3.42-.11,3.8l.29.14c.77.37,2.07-.73,2.9-2.45,0,0,0,0,0,0l.39-.81c.18-.36.03-.8-.33-.98,0,0,0,0,0,0"/>
    <path class="cls-3" d="M199.73,46.62l-3.65-.8c-.32-.07-.63.13-.7.45l-.07.31c-.32,1.44.43,2.83,1.67,3.1l.31.07c1.24.27,2.5-.67,2.82-2.11l.07-.31c.07-.32-.12-.63-.44-.71,0,0,0,0,0,0"/>
    <path class="cls-3" d="M214.07,73.95c.24.48.62.67,1.15.56.12-.02.23-.07.33-.15,1.47-1.16,2.14-1.87,2.01-2.14-.13-.27-1.11-.17-2.92.31-.12.03-.24.09-.33.17-.4.35-.48.77-.24,1.25"/>
    <path class="cls-3" d="M166.87,200.94c-5.69-6.71-9.56-14.44-11.62-23.18-1.75-7.45-3.21-15.66-4.36-24.63-.04-.31.18-.6.49-.64.03,0,.06,0,.09,0h6.24c.44,0,.84.28.98.7,3.03,9.2,6.9,18.38,11.61,27.53,2.73,5.3,4.6,10.4,5.63,15.29.04.21.24.34.45.29.05,0,.09-.03.13-.05,4.23-2.75,7.97-5.95,11.22-9.58.3-.33.27-.85-.07-1.14-.11-.09-.23-.16-.37-.19-12.67-2.73-19.84-19.86-23.46-30.99-2.56-7.85-2.86-15.99-3.66-23.68-.18-1.66-1.11-2.47-2.79-2.44-.34,0-2.3.05-5.89.13-.3,0-.55-.24-.56-.54,0-.05,0-.1.02-.15.66-2.55,2.13-4.65,4.4-6.31,8.49-6.2,12.94-8.97,18.18-15.81,2.56-3.33,5.64-7.53,9.23-12.6.19-.27.13-.63-.14-.82-.04-.03-.08-.05-.12-.07-6.65-2.71-11.55-3.6-21.53-5.78-.36-.08-.71-.2-1.05-.35-7-3.26-9.3-9.66-8.97-17.06.03-.5-.22-.96-.63-1.23-6.26-4.02-13.29-2.88-19.47.64-.29.16-.43.49-.35.81,2.01,8.45-1.87,16.37-10.86,17.86-7.06,1.18-13.65,2.76-19.78,4.73-.49.16-.75.68-.6,1.17.04.13.11.25.21.35,1.52,1.64,3.49,3.26,4.86,5.1,2.79,3.75,5.43,7.17,7.93,10.25,2.69,3.32,6.84,7.05,12.45,11.2,2.28,1.68,4.29,4.05,6.04,7.11.3.52.12,1.19-.41,1.49-.17.09-.35.14-.54.14h-3.95c-.73,0-1.41-.39-1.77-1.02l-6.22-10.78c-.15-.25-.42-.41-.72-.41h-.3c-.3,0-.55.25-.55.55,0,.09.02.17.06.25,2.29,4.43,3.54,7.48,3.75,9.13.61,4.77.62,10.01.03,15.7-.84,8.01-5.23,17.55-7.68,24.58-3.23,9.26-9.17,17.02-19.2,18.89-.22.04-.37.24-.33.46.01.07.04.13.08.18,3.01,3.88,6.56,7.25,10.65,10.1.42.3,1.01.19,1.31-.23.08-.11.13-.24.16-.38.66-3.79,2.01-7.38,4.03-11.08,5.25-9.64,9.64-19.99,13.17-31.05.17-.52.66-.88,1.21-.88h5.67c.37,0,.67.29.67.66,0,.02,0,.04,0,.06-.97,12.81-3.06,25.84-8.16,37.43-1.6,3.65-4.63,7-6.56,10.17-.2.32-.1.74.23.94.06.04.12.06.19.08l15.68,4.05c.26.07.53-.1.6-.36.01-.05.02-.1.01-.16-.55-6.96-.44-14.77.33-23.44.63-7.08,2.86-21.61,3.42-32.48.54-10.44,1.16-17.79-.39-25.78-.54-2.78-1.77-4.77-3.7-5.96-8.38-5.18-14.17-8.1-18.68-13.6-3.55-4.32-6.83-7.99-9.86-11.01-.13-.13-.19-.26-.19-.4,0-.47.22-.7.66-.71,6.27-.09,12.16-.63,17.66-1.61,7.36-1.31,13.38-3.37,17.9-9.37.12-.16.21-.34.26-.53l.69-2.7c.09-.36.46-.59.82-.5.19.05.36.18.45.36,3.91,7.66,10.5,11.15,18.45,13.65.53.17.89.66.89,1.22-.02,5.81-.25,10.77-.69,14.88-.31,2.88-1.4,4.93-3.66,6.61-4.53,3.37-7.11,5.38-7.72,6.03-3.49,3.72-3.26,7.22-3.56,13.14-.06,1.18.03,5.42.28,12.72.33,9.47,2.31,21.52,3.11,28.35,1.22,10.42,1.68,20.68,1.65,30.82,0,.37.3.67.67.67.03,0,.06,0,.08,0,5.56-.75,10.88-2.12,15.97-4.1.22-.09.33-.34.24-.55-.02-.04-.04-.08-.07-.12"/>
    <path class="cls-3" d="M133.59,222.73c3.89-1.86,5.45-4.82,4.67-8.89-1.09-5.67-7.25-3.32-6.89,1.25.15,1.85,1.05,2.82,2.7,2.93.21.01.39-.15.4-.36,0-.08-.02-.17-.06-.23-.71-1.05-1.05-2.69-1.01-4.91.02-.7.6-1.25,1.29-1.23.31,0,.61.13.84.35,1.91,1.86.57,6.59-.49,8.78-.22.45-.49.79-.8,1-.78.53-1.18.83-1.19.9-.04.21.1.4.31.44.08.01.16,0,.23-.03"/>
    <path class="cls-3" d="M143.37,222.81c3.85-1.89,5.37-4.86,4.55-8.89-1.15-5.63-7.25-3.22-6.84,1.32.17,1.83,1.08,2.79,2.72,2.88.21,0,.39-.16.39-.37,0-.08-.02-.16-.06-.22-.72-1.04-1.07-2.66-1.06-4.87,0-.69.57-1.25,1.26-1.24.32,0,.62.12.85.34,1.92,1.83.64,6.55-.39,8.74-.21.45-.47.79-.78,1-.77.53-1.17.84-1.18.91-.03.21.11.4.32.43.08.01.15,0,.22-.03"/>
    <path class="cls-3" d="M155.94,222.09c2.58-1.69,1.6-4.29-.16-6.46-.12-.14-.19-.32-.2-.51-.02-.23.09-.41.34-.54.95-.5,1.42-1.57,1.04-2.39-.06-.13-.14-.26-.25-.36-.69-.73-1.66-1.23-2.93-1.48-.44-.09-.89.09-1.15.45l-.41.55c-.14.18-.11.45.08.59.05.04.12.07.18.08,1.61.32,2.48.95,2.62,1.9.05.37-.2.79-.75,1.25-.51.43-.76.86-.75,1.29,0,.36.18.7.49.89,1.75,1.11,2.23,2.57,1.43,4.38-.06.15,0,.32.15.38.09.04.19.03.27-.02"/>
    <path class="cls-3" d="M126.4,211.49c0-.23-.2-.4-.42-.4l-1.4.04c-.23,0-.4.2-.4.42h0s.34,10.91.34,10.91c0,.23.2.4.42.4l1.4-.04c.23,0,.4-.2.4-.42h0s-.34-10.91-.34-10.91"/>
    <path class="cls-3" d="M153.78,222.46c-.45-.09-1.19-.56-2.24-1.42-.26-.22-.64-.18-.86.08-.11.13-.16.3-.14.47.13,1.13,1.17,1.71,3.14,1.75.25,0,.45-.2.45-.45,0-.21-.14-.39-.35-.43"/>
    <path class="cls-3" d="M134.17,69.14c.12.37.33.64.64.79,1.71.85,3.41,2.02,5.08,3.51.41.36,1.02.39,1.46.07l5.97-4.28c.36-.26.44-.77.18-1.13-.12-.17-.3-.28-.5-.32-4.2-.8-8.35-.59-12.44.63-.3.08-.48.4-.4.71,0,0,0,.01,0,.02"/>
    <path class="cls-3" d="M165.79,92.46l-1.72,10.22c-.05.3-.14.59-.28.85l-4.04,7.83c-.17.31-.06.71.25.88.24.13.53.1.74-.07,2.56-2.11,4.29-3.53,5.2-4.24,5.16-4.08,8.58-9.01,12.09-14.84.2-.35.09-.79-.25-1-.11-.07-.24-.1-.37-.1h-11.07c-.27,0-.51.2-.55.47"/>
    <path class="cls-3" d="M131.05,133.82c.02-.48-.35-.88-.83-.9h0l-4.3-.17c-.48-.02-.88.35-.9.83h0l-.12,2.92c-.02.48.35.88.83.9h0l4.3.17c.48.02.88-.35.9-.83h0l.12-2.92"/>
    <path class="cls-3" d="M150.72,137.19l4.09.14c.46.02.84-.34.86-.8,0,0,0,0,0-.01l.06-1.67c.04-1.14-.76-2.1-1.8-2.14,0,0,0,0,0,0l-2-.06c-1.04-.04-1.91.86-1.95,2l-.06,1.68c-.02.46.34.84.8.86,0,0,0,0,.01,0"/>
    <path class="cls-3" d="M130.81,142.05c0-.15-.11-.27-.26-.28l-5.86-.19c-.15,0-.27.11-.28.26h0l-.17,5.16c0,.15.11.27.26.28l5.86.19c.15,0,.27-.11.28-.26l.17-5.16"/>
    <path class="cls-3" d="M156.91,141.84c0-.15-.13-.26-.28-.26l-6.04.24c-.15,0-.26.13-.26.28h0s.2,4.86.2,4.86c0,.15.13.26.28.26l6.04-.24c.15,0,.26-.13.26-.28h0s-.2-4.86-.2-4.86"/>
    <path class="cls-3" d="M53.97,86.46c.42-.42.42-1.11,0-1.53-.04-.04-.08-.07-.12-.1l-15.25-11.28c-.31-.22-.74-.15-.96.16-.12.17-.16.38-.11.58l1.49,5.37c.11.39.44.67.84.71l2.11.22c.3.03.52.3.49.61l-.18,1.7c-.05.42.26.79.67.84.15.02.31-.01.45-.09.42-.23.89-.59,1.4-1.09.53-.52,1.38-.51,1.9.01l4.74,4.74c.46.46,1.2.46,1.66,0,0,0,0,0,0,0l.86-.85"/>
    <path class="cls-3" d="M37.45,83.17c.27-.11.25-.81-.06-1.57h0c-.3-.76-.77-1.29-1.04-1.18-.27.11-.25.81.06,1.57,0,0,0,0,0,0,.3.76.77,1.29,1.04,1.18"/>
    <path class="cls-3" d="M41.8,87.84c.19-.18.08-.6-.24-.96-.33-.35-.74-.5-.93-.32,0,0,0,0,0,0-.19.18-.08.6.24.96.33.35.74.5.93.32,0,0,0,0,0,0"/>
    <path class="cls-3" d="M49.01,89.76c-.33.49-.43.96-.29,1.41.08.23.33.35.56.27.04-.01.08-.04.12-.06.04-.03.26-.33.65-.92.39-.58.6-.9.61-.95.06-.24-.09-.47-.33-.53-.04-.01-.09-.01-.13-.01-.46.03-.86.3-1.19.79"/>
    <path class="cls-3" d="M247.47,93.27c.38-.4-.05-1.44-.98-2.32,0,0,0,0,0,0-.92-.88-1.98-1.28-2.36-.88-.38.4.05,1.44.98,2.32,0,0,0,0,0,0,.92.88,1.98,1.28,2.36.88"/>
    <path class="cls-3" d="M32.79,118.86c0-.5-.4-.9-.9-.9s-.9.4-.9.9.4.9.9.9h0c.5,0,.9-.4.9-.9h0"/>
    <path class="cls-3" d="M247.82,126.05c-.05-.1-.24-.28-.58-.55-.24-.19-.59-.14-.78.1-.31.41-.32.79-.04,1.14.29.33.81.4,1.16.15.27-.19.37-.53.24-.84"/>
    <path class="cls-3" d="M53.49,201.77c-.65-.97-2.9-.61-5.03.81-2.13,1.42-3.33,3.36-2.68,4.33.65.97,2.9.61,5.03-.81,2.13-1.42,3.33-3.36,2.68-4.33"/>
    <path class="cls-3" d="M186.95,246.96c1.08-.53,1.01-2.88-.15-5.25h0c-1.17-2.37-2.99-3.86-4.07-3.33-1.08.53-1.01,2.88.15,5.25h0c1.17,2.37,2.99,3.86,4.07,3.33"/>
    <path class="cls-3" d="M103.82,250.74c1.07.38,2.65-1.32,3.55-3.8t0,0c.89-2.48.76-4.81-.31-5.19-1.07-.38-2.65,1.32-3.55,3.8t0,0c-.89,2.48-.76,4.81.31,5.19"/>
    <path class="cls-3" d="M144.5,251.13c-.05-.4-.48-.67-.96-.61,0,0,0,0,0,0-.48.06-.82.44-.77.84,0,0,0,0,0,0,.05.4.48.67.96.61,0,0,0,0,0,0,.48-.06.82-.44.77-.84,0,0,0,0,0,0"/>
  </g>
  <path class="cls-1" d="M279.82,140.41c0,76.99-62.42,139.41-139.41,139.41S1,217.4,1,140.41h0C1,63.42,63.42,1,140.41,1h0c76.99,0,139.41,62.42,139.41,139.41ZM276.56,129.03C270.26,53.97,204.21-1.75,129.04,4.56t0,0C53.87,10.87-1.96,76.83,4.34,151.89t0,0c6.3,75.06,72.35,130.78,147.52,124.47h0c75.17-6.31,131-72.27,124.7-147.33,0,0,0,0,0,0Z"/>
  <path class="cls-2" d="M276.56,129.03c6.3,75.06-49.53,141.02-124.7,147.33h0c-75.17,6.31-141.22-49.42-147.52-124.47t0,0C-1.96,76.83,53.87,10.87,129.04,4.56c0,0,0,0,0,0,75.17-6.31,141.22,49.42,147.52,124.47t0,0ZM273.78,140.43c0-73.65-59.7-133.35-133.35-133.35h0C66.78,7.08,7.08,66.78,7.08,140.43c0,73.65,59.7,133.35,133.35,133.35s133.35-59.7,133.35-133.35Z"/>
  <path class="cls-1" d="M273.78,140.43c0,73.65-59.7,133.35-133.35,133.35S7.08,214.08,7.08,140.43C7.08,66.78,66.78,7.08,140.43,7.08c73.65,0,133.35,59.7,133.35,133.35h0ZM121.89,29.86c-.44.64-.58,1.27-.42,1.88.06.24.3.38.54.32.09-.02.16-.07.22-.13.37-.39.64-.82.83-1.28.09-.22.24-.41.44-.55,2.09-1.49,6.43-4.86,6.43-7.52,0-.97-.9-1.74-2-1.71-.09,0-.18,0-.27.02-.95.14-1.65.37-2.08.68-.29.21-.7.14-.91-.15-.01-.02-.03-.04-.04-.06l-1.51-2.62c-.19-.33-.22-.73-.08-1.08l2.05-5.25c.18-.45-.05-.96-.5-1.14,0,0,0,0,0,0l-.34-.13c-.68-.27-1.46.07-1.73.76,0,0,0,0,0,0l-3.3,8.45c-.1.24,0,.51.23.63.41.21.9.35,1.49.42.49.07.84.52.77,1.01-.01.1-.04.2-.09.29l-2.82,5.46c-.11.22-.38.3-.59.19-.08-.04-.14-.11-.19-.19-.82-1.57-2.25-2.95-4.29-4.13-.24-.13-.55-.04-.68.2-.06.12-.08.25-.04.38.63,1.95,1.81,3.5,3.54,4.65.54.36.69,1.09.33,1.64-.16.24-.39.41-.67.48-.76.2-1.44.26-2.05.18-.45-.06-.86.26-.92.71-.02.16,0,.32.08.46.52,1.09,1.32,1.81,2.4,2.18.51.17,1.06-.1,1.23-.61,0-.02.01-.04.02-.06.66-2.43,2.13-4.1,4.42-5.01.22-.09.46.02.55.24.05.13.03.28-.05.39ZM159.03,24.2c-1.41-.53-2.76.11-4.03,1.92-.24.33-.69.4-1.02.16-.18-.13-.29-.33-.3-.55-.07-2.1-1.34-4.65-.56-6.86.11-.31.29-.59.53-.81,1.75-1.61,3.47-2.95,3.72-4.76.05-.32-.18-.62-.5-.67-.17-.02-.35.03-.48.14-1.29,1.11-2.6,1.67-3.95,1.66-.67,0-1.32.23-1.83.67-1.12.95-3.8,2.95-8.03,5.98-.7.5-.89,1.47-.43,2.16.23.35.6.58,1.01.63.71.09,1.28.47,1.71,1.14.21.33.25.74.12,1.11-2.31,6.41-3.73,12.75-4.27,19.02-.13,1.55.41,2.42,1.62,2.6.36.06.73-.05,1-.3,1.1-.99,1.88-2.41,2.34-4.28.57-2.33-.98-4.97-.05-7.75.51-1.51,1.71-4.44,3.6-8.79.17-.38.19-.81.07-1.21-.21-.71-.64-1.41-1.28-2.1-.2-.21-.24-.52-.1-.77.33-.65.77-1.22,1.31-1.71.19-.17.48-.16.65.03.07.08.11.17.12.27l.57,5.63s.02.08.04.11c1.13,2.06,2.57,3.3,4.34,3.71.23.06.37.29.31.52-.02.06-.04.12-.08.17-.26.31-.91.39-1.95.26-.24-.04-.5.04-.68.22-.4.39-.29,1.23.33,2.5.24.48.07,1.06-.39,1.34-2.28,1.4-3.43,2.11-3.45,2.13-.45.34-.56.97-.24,1.4.08.11.18.19.29.26.44.25.74.55.9.89.16.34.11.75-.12,1.05-.87,1.14-1.53,2.32-1.97,3.54-.2.56.09,1.17.64,1.37.15.05.31.07.47.06l.7-.07c.93-.1,1.7-.76,1.93-1.66l1.02-3.95c.11-.44.56-.71,1-.59.34.09.59.38.62.72l.37,3.69c.12,1.22,1.09,2.18,2.31,2.31l10.21,1.08c.59.06,1.13-.36,1.19-.96.03-.24-.03-.49-.16-.69-2.02-3.2-3.44-5.3-4.27-6.3-1.68-2.02-2.8-2.55-3.37-1.6-.09.14-.09.32,0,.47l2.11,3.65c.28.48.11,1.1-.37,1.38-.18.11-.4.15-.61.13l-2.28-.24c-.84-.09-1.49-.77-1.55-1.61-.06-.95-.46-2.17-1.2-3.68-.2-.4-.09-.89.26-1.17,1.65-1.32,2.91-2.45,3.78-3.4.54-.59.55-1.5.02-2.04-.23-.23-.53-.36-.85-.37-.83-.03-1.42-.46-1.77-1.27-.16-.37-.02-.8.33-1,2.65-1.51,6.05-3.94,6.84-7.12.11-.42-.15-.85-.58-.96-.1-.03-.21-.03-.31-.02-2.37.33-3.99,1.33-4.87,3-.09.17-.29.24-.47.18ZM160.44,15.25c-1.19.23-1.28.94-.29,2.12.44.52.37,1.31-.15,1.75-.13.11-.29.2-.46.24l-2.56.71c-.52.15-.83.68-.69,1.2.08.3.3.54.59.65l1.1.43c.43.17.92.11,1.29-.16l4.35-3.12c.74-.53.9-1.55.38-2.29-.18-.26-.44-.46-.74-.57l-2.33-.91c-.16-.06-.33-.08-.49-.05ZM90.21,42.76c-.08.25-.34.4-.59.33-.13-.04-.24-.13-.3-.26-2.07-4.66-3.27-7.02-2.12-12.18.32-1.44-.36-2.91-1.67-3.58l-2.56-1.32c-.74-.38-1.65-.09-2.03.65-.13.24-.18.52-.17.79.12,2.05.74,4.33,1.86,6.84.32.73.3,1.56-.07,2.27l-3.2,6.19c-.16.33-.03.72.29.88.03.02.06.03.09.04,1.99.64,3.52.27,4.57-1.1.24-.31.68-.36.98-.12.08.06.14.14.19.22,1.31,2.45,3.09,5,3.14,6.84.08,2.85-.79,5.24-2.6,7.16-.6.63-.58,1.63.05,2.23.35.33.83.49,1.3.43,2.36-.31,3.58-1.81,3.67-4.51,0-.31.26-.55.57-.55.22,0,.41.13.5.33.54,1.14,1.46,2.34,2.76,3.6.44.43,1.14.42,1.57-.02.31-.32.4-.79.24-1.2-.62-1.58-1.64-3.27-3.05-5.07-2.75-3.52-1.9-6.95-.7-10.53.1-.29.41-.44.7-.34.11.04.21.11.27.2l2.23,3.11c.3.42.21.99-.2,1.29,0,0,0,0-.01,0l-1.28.92c-.69.49-.86,1.44-.4,2.13,1.33,2,2.52,3.27,3.59,3.81.59.3,1.29.29,1.87-.04,1.86-1.04,3.49-2.4,4.88-4.07.35-.41.92-.55,1.41-.35,3.47,1.42,5.25,1.17,5.35-.76.04-.73-.44-1.39-1.16-1.58l-4.11-1.06c-.33-.09-.59-.33-.7-.64-.34-.97-.46-2.5-1.07-3.27-2.16-2.75-4.37-1.59-6.26.54-.42.47-1.14.52-1.61.1-.12-.1-.21-.23-.28-.37l-2.06-4.44c-.12-.25-.18-.52-.17-.8.05-1.95.11-4.64.2-8.07.03-.86-.72-2.32-2.23-4.39-.16-.22-.4-.38-.68-.43-1-.19-1.93-.18-2.8.03-.32.07-.57.34-.61.68-.17,1.43-.2,2.46-.11,3.1.35,2.26,2.13,4.95,2.66,7.21.73,3.1.69,6.14-.14,9.12ZM201.57,36.35c.09.19.02.42-.16.53-5.92,3.53-10.28,9.09-13.83,15.44-.46.83-.16,1.87.67,2.32.08.05.17.08.25.12l.21.07c1.07.39,2.25-.17,2.64-1.24,0,0,0-.01,0-.02.34-.97.78-1.76,1.32-2.39.58-.68,1.13-.91,1.66-.68.31.13.58.56.83,1.28.33.97-.19,2.02-1.16,2.34-.13.04-.26.07-.4.09l-1.6.16c-.53.05-.91.52-.86,1.05.02.18.09.36.2.5,2.47,3.13,5.68,3.84,9.62,2.11.31-.14.51-.45.52-.79,0-.8-.38-1.61-1.15-2.43-.17-.18-.21-.45-.1-.67l4.08-7.9c.33-.65.08-1.45-.57-1.78-.02,0-.04-.02-.06-.03-1.18-.54-2.6-.71-4.25-.52-.6.06-1.15-.37-1.21-.97-.02-.18,0-.36.07-.52.62-1.57,1.69-1.73,3.22-.47.43.36,1.08.3,1.44-.14,0-.01.02-.02.02-.03,1.85-2.43,4.11-4.06,6.78-4.88.73-.23,1.14-1.01.91-1.74-.03-.1-.08-.21-.13-.3-.94-1.56-2.24-2.3-3.89-2.21-4.11.21-7.86,1.4-11.26,3.58-.09.07-.22.06-.31-.01l-.24-.17c-.2-.14-.24-.42-.09-.62.02-.03.05-.06.08-.08,2.16-1.71,3.9-3.26,5.21-4.64.85-.88.99-2.15.33-2.96-.18-.23-.74-.45-1.67-.66-3.05-.71-6.13-.9-9.24-.58-.89.09-1.44.23-1.65.4-.48.4-.51,1.13-.07,1.64.09.1.19.19.3.25,1.23.75,2.26,1.39,3.09,1.94.3.2.67.26,1.01.16l3-.83c.27-.08.54.07.62.34.04.15.01.31-.08.44l-1.95,2.64c-.4.54-1.17.65-1.71.25-.27-.2-.44-.5-.48-.83-.13-1.03-.62-1.58-1.48-1.64-.38-.02-.73.19-.89.54-1.02,2.35-2.67,4.67-4.95,6.95-6.15,6.15-9.46,9.5-9.94,10.03-.6.68-.53,1.72.15,2.32.15.13.31.23.49.3l1.68.66c.97.38,2.07-.03,2.56-.96l1.5-2.9c.12-.24.41-.33.65-.2.12.06.21.18.25.31l.86,3.49c.07.27.17.53.32.77.98,1.56,1.96,1.77,2.95.64,2.02-2.31,3.85-5.22,5.49-8.75,1.12-2.42,1.94-3.86,2.46-4.31,1.21-1.07,3.63-2.44,7.26-4.12.23-.11.51,0,.62.22l.05.09ZM118.57,38.63l4.91-.5c.19-.02.37-.12.48-.28l4.95-6.68c.33-.45.23-1.09-.22-1.43-.19-.14-.42-.21-.66-.19-.93.06-1.71.37-2.33.94-2.91,2.67-5.47,4.97-7.67,6.89-.3.25-.34.7-.09,1,.15.18.39.28.63.25ZM121.89,48.29c.13.19.34.32.58.36,3.13.49,6.44-.3,4.58-4.52-.56-1.28-.15-2.37,1.22-3.26.64-.42.87-1.23.52-1.82-.07-.12-.16-.22-.27-.31-.38-.3-3.39.64-5.18.97-.14.03-.28.09-.39.18l-5.13,3.97c-.33.26-.4.73-.14,1.07.1.14.25.23.42.27l1.4.36c.58.15,1.2-.01,1.63-.43.65-.63,1.32-1.08,1.99-1.35.45-.19.97.03,1.16.48l.26.64c.18.44.02.94-.38,1.19-.46.27-1.3.38-2.51.33-.3-.02-.56.21-.58.52,0,.13.03.25.1.35l.72,1ZM71.17,57.82c.69.61,1.69,1.63,2.98,3.06,2.11,2.33,4.76,4.28,7.94,5.83.37.18.81.03.99-.34.05-.1.08-.21.08-.33,0-.3-.11-.56-.36-.79-4.27-3.93-7.87-7.41-10.79-10.45-1.38-1.44-2.39-2.73-2.11-5.03.19-1.53,0-2.9-.54-4.12-.23-.52-.84-.75-1.36-.51-.11.05-.22.12-.31.21l-1.31,1.3c-.27.27-.71.28-.98,0,0,0,0,0,0,0l-5.37-5.37c-.29-.3-.78-.3-1.08,0-.17.17-.25.4-.22.63.5,4.58,4.46,7.74,7.29,10.57.28.28.49.6.64.96,1.5,3.58-.15,8.11-.32,11.3-.04.72-.66,1.28-1.38,1.24-.56-.03-1.04-.42-1.19-.96l-1.9-6.82c-.24-.88-1.15-1.39-2.03-1.15,0,0,0,0-.01,0l-1.22.34c-.59.16-1.22.15-1.81-.05-1.4-.47-2.36-.52-2.89-.16-.18.13-.43.09-.56-.1-.06-.09-.09-.2-.07-.3.04-.25.78-1.92,2.21-5.01,1.47-3.17-1.16-5.03-3.82-4.92-.35.02-.62.31-.6.66,0,.07.02.13.04.19,1.15,3.12-.15,6.79-.88,9.93-.07.32.13.64.45.72.1.02.2.02.3,0l1.12-.31c.4-.11.82,0,1.11.29l3.18,3.18c.62.62.96,1.46.95,2.34-.05,3.5.36,6.51,1.23,9.03.14.41.59.63,1.01.48.25-.09.44-.3.51-.55.43-1.68.49-3.31.18-4.88-.05-.25.12-.49.37-.53.18-.03.37.05.47.2,1.01,1.65,1.78,3.78,2.3,6.39.42,2.09,1.43,3.32,3.62,2.28.76-.36.99-1.21,1.39-1.51.36-.27.86-.26,1.22.02,1.5,1.17,2.59,1.68,3.26,1.54.52-.11.78-.69.58-1.3-.06-.19-.16-.37-.3-.52-1.42-1.59-5.94-4.7-6.12-7.78-.02-.38.17-.75.51-.93,2.76-1.51,3.64-3.95,2.65-7.34-.09-.32.09-.65.41-.74.19-.06.4-.01.55.12ZM58.39,53.81c.81-.13,1.49,0,2.04.39.29.21.51.5.62.84.68,2.08,2.11,2.53,4.29,1.36.76-.4,1.09-1.33.73-2.08-.16-.34-.46-.6-.82-.72-1.41-.46-2.31-1.36-2.71-2.69-.26-.85-1.09-1.39-1.85-1.2-.18.05-.35.13-.5.25-1.37,1.13-2.15,2.24-2.34,3.31-.04.26.13.5.39.54.05,0,.1,0,.15,0ZM228.7,66.67c-.07-.01-.69-.25-1.87-.7-.46-.18-.95-.27-1.45-.27-1.95,0-3.72-.43-5.33-1.26-.96-.49-2.12-.55-3.06-.35-.67.14-1.1.79-.97,1.46.05.24.17.46.34.63l2.62,2.62c.18.18.19.47.01.65-.11.12-.28.16-.43.13-3.27-.68-6.81-2.1-10.62-4.26-.4-.22-.91-.08-1.13.33-.02.04-.04.08-.05.11l-.1.41c-.11.44.1.9.5,1.1l5.51,2.85c.35.18.49.6.31.95-.09.18-.26.31-.45.37-1.71.47-3.42.8-3.74,2.52-.13.72.32,1.42,1.03,1.61,2.08.55,3.16.83,3.23.86.41.17.6.64.43,1.05-.03.08-.08.16-.14.22-1.81,2.01-1.47,3.55,1,4.63.56.25,1.21,0,1.45-.56.02-.05.04-.11.06-.17l.81-3.12c.09-.35.45-.57.81-.48.12.03.23.09.31.18,1.5,1.51,3.11,1.87,4.84,1.08.84-.38,1.15-1.45.68-2.38-.09-.17-.19-.33-.32-.47-.52-.59-1.26-1.12-2.23-1.6-.44-.22-.63-.75-.41-1.19.11-.23.32-.4.57-.47l1.88-.52c.42-.11.66-.55.54-.97-.01-.05-.03-.09-.05-.13-.78-1.63-1.9-3.56-1.48-4.02.34-.37.7-.39,1.08-.06,2.46,2.18,5.19,3.8,8.19,4.87.33.12.7-.04.82-.38.04-.09.05-.19.04-.29l-.25-2.52c-.03-.26.17-.5.43-.52.06,0,.11,0,.17.01l4.94,1.28c.47.12.95-.17,1.07-.63.04-.15.03-.3,0-.45l-.42-1.49c-.12-.45,0-.93.34-1.27l3.47-3.48c.61-.61.72-1.57.25-2.3l-.15-.24c-.4-.7-1.28-.95-1.98-.56-.12.07-.23.15-.33.25l-4.94,5.03c-.81.83-2.07,1.03-3.1.49l-4.84-2.5c-.66-.34-.92-1.16-.58-1.81.1-.19.24-.35.41-.48l3.88-2.78c.17-.12.3-.3.35-.51.71-2.85-.04-4.85-2.25-5.99-.31-.16-.69-.04-.85.27-.09.17-.09.37-.02.55.91,2.06.49,3.64-1.25,4.75-1.44.91-2.89,1.8-4.34,2.69-.31.19-.73.1-.92-.22-.03-.06-.06-.12-.08-.18-1.03-3.86-3.62-5.32-7.77-4.39-.85.19-1.4.45-1.64.77-.6.8-.38,1.96.5,2.58.19.14.41.24.64.31,2.27.65,3.8,1.07,4.59,1.28.38.1.7.38.86.75.27.65.41,1.23.44,1.72.03.8.79,1.4,1.69,1.34.11,0,.23-.03.34-.05,1.59-.4,2.7-.64,4.23.36.91.6,2.28,1.4,4.09,2.39.14.09.19.28.1.43-.06.1-.18.16-.3.14ZM227.76,140.44c0-48.23-39.1-87.33-87.33-87.33s-87.33,39.1-87.33,87.33c0,48.23,39.1,87.33,87.33,87.33s87.33-39.1,87.33-87.33ZM43.11,101.31c2.04-1.24.66-4.17.18-5.87-.14-.48-.11-.99.07-1.45.21-.51.52-1.01.93-1.49.24-.28.29-.68.1-.99l-.77-1.34c-.13-.22-.13-.48,0-.7.48-.79.96-1.34,1.45-1.65.31-.19.72-.1.91.2.05.08.08.17.09.26.05.42.03,1.02-.06,1.81-.07.52.06.88.37,1.08.37.24.78.4,1.25.47.34.05.66.21.91.46.41.4.81.64,1.2.72.35.08.71.02,1.02-.15,4.49-2.6,7.44-4.3,8.83-5.11,2.18-1.28.45-3.77-1.13-4.66-7.27-4.07-13.51-9.02-18.7-14.83-.6-.67-1.62-.74-2.3-.15-3.14,2.72-1.87,5.62-1.17,9.04.07.35-.16.69-.51.76-.12.02-.25.01-.37-.03-2.69-1.07-5.19-.5-7.52,1.69-.35.32-.37.87-.04,1.22.13.14.32.24.51.26,2.56.35,5.44,1.39,5.64,4.43.23,3.55,0,6.53-.66,8.95-.13.47.14.95.61,1.09.3.08.62,0,.84-.21,1.79-1.68,2.63-3.75,2.51-6.2-.03-.46.31-.86.78-.9.38-.03.73.2.85.56,1.58,4.22,1.11,8.59,3.47,12.62.16.27.17.61.01.88-.27.47-.3.95-.11,1.44.08.21.22.38.41.48l4.51,2.57c.21.12.44.18.68.19,1.25.03,2.17-.12,2.77-.45.67-.38.89-1.26.48-1.96-.08-.13-.17-.25-.29-.36-1.79-1.68-4.34-2.45-7.64-2.31-.11,0-.2-.08-.2-.2,0-.07.03-.14.09-.17ZM239.07,90.7c-.15-.01-.29.1-.31.25-.01.11.04.21.14.26l7.01,4.29c.16.1.34.17.53.21,1.05.21,2.08.22,3.1.04.7-.12,1.17-.79,1.05-1.5,0-.01,0-.03,0-.04-.26-1.31-.83-2.41-1.72-3.3-.27-.27-.27-.7,0-.98.03-.03.06-.05.09-.07l2.58-1.85c.35-.24.77-.35,1.19-.3l4.42.54c.78.1,1.49-.46,1.59-1.24,0,0,0-.02,0-.03l.03-.25c.07-.71-.44-1.35-1.15-1.43-.1-.01-.21,0-.31,0-2.9.39-5.72.26-8.45-.41-.3-.08-.61.11-.7.42l-.56,2.16c-.12.45-.58.72-1.03.61l-5.88-1.52c-.21-.06-.34-.28-.28-.49.02-.08.06-.14.12-.19,1.55-1.32,2.44-2.95,2.66-4.9.03-.23-.14-.44-.37-.47-.01,0-.02,0-.03,0-.49-.03-.99.23-1.48.76-.99,1.07-1.77,2.55-2.34,4.43-.07.24-.32.38-.56.31-.02,0-.04-.01-.05-.02-1.17-.5-1.91-1.27-2.23-2.32-.14-.44-.61-.69-1.05-.55-.12.04-.24.1-.33.19-.79.76-1.32,1.79-1.58,3.09-.05.26.12.51.38.56.03,0,.07,0,.1,0,1.11-.01,2.85.36,5.23,1.11,1,.32,1.61,1.27,1.36,2.13-.03.09-.06.19-.11.27-.1.18-.45.25-1.04.21ZM243.15,95.79l-11.72-6.9s0,0,0,0l-.02.03c-1.09,1.86.55,4.85,3.67,6.69,0,0,0,0,0,0l.44.25c3.12,1.84,6.54,1.82,7.63-.03v-.02s.02,0,.02-.01c0,0,0,0,0,0ZM233.81,99.11l-2.5-4.08c-.07-.11-.15-.19-.25-.26l-5.46-3.75c-.33-.22-.78-.13-1,.2-.06.08-.09.18-.11.27l-.08.51c-.16.96.23,1.92,1.01,2.5l2.27,1.68c.35.26.42.75.17,1.1-.03.05-.07.09-.12.13-.52.45-1.15.57-1.9.34-.3-.09-.54-.29-.69-.55l-1.33-2.29c-.16-.27-.5-.36-.76-.21-.1.05-.17.14-.22.24-.87,1.76.24,4.33,1.37,5.81.39.52,1.11.67,1.67.34l3.07-1.78c.32-.18.7-.2,1.04-.07l2.8,1.09c.43.17.92-.05,1.09-.48.09-.24.07-.52-.07-.74ZM38.1,120.16c-.21.51.03,1.1.54,1.31.43.18.93.03,1.2-.35l4.1-5.53c.47-.64.41-1.52-.15-2.08-1.34-1.35-3.23-2.13-5.01-2.31-5.5-.57-10.3-1.52-14.39-2.85-.76-.24-1.4-.76-1.81-1.46l-1.92-3.32c-.47-.81-1.51-1.1-2.32-.63-.06.04-.12.08-.18.12-1.99,1.5-1.11,2.84-.22,5.19,2.14,5.64,3.92,10.11,5.33,13.4.28.66.98,1.04,1.69.92h.05c.56-.13.92-.69.79-1.25,0-.02,0-.03-.01-.05l-2.47-8.86c-.16-.56.17-1.15.73-1.31.13-.04.26-.05.39-.03l3.96.42c.3.04.51.3.48.59-.01.12-.07.24-.17.33-.39.36-.86.66-1.43.9-.79.34-1.18,1.23-.89,2.04.83,2.34,2.69,5.97,5.13,6.73,1.37.43,3.06.19,5.06-.72.4-.19.58-.66.39-1.06,0-.02-.02-.04-.03-.06l-3.33-5.76c-.23-.39-.09-.88.29-1.11.22-.13.48-.14.71-.05l4.02,1.57c.73.28,1.09,1.11.81,1.84,0,0,0,0,0,0l-1.34,3.43ZM252.9,126.63c1.63,1.71,6.35,5.61,8.67,4.82.78-.27,1.07-1.23.65-2.13-.11-.25-.28-.48-.47-.67-1.67-1.62-3.75-2.64-4.86-4.55-.39-.67-1.16-1.23-2.32-1.68-.31-.12-.46-.47-.33-.78.06-.14.16-.25.3-.32l4.86-2.2c1.11-.5,2.41-.31,3.32.49,1.24,1.07,2.7,1.74,4.39,2,.45.07.86-.25.93-.69.04-.29-.08-.59-.31-.77-1.28-.99-2.17-2.13-2.68-3.43-.21-.52-.56-.98-1.01-1.31l-7.98-5.91c-.72-.54-1.74-.39-2.28.34-.15.21-.26.45-.3.7l-.37,2.21c-.06.35-.38.6-.73.57-5.77-.43-12.01-.14-18.74.88-2.03.31-3.18,1.18-3.45,2.61-.09.45.15.91.58,1.1,1.35.61,3,.88,4.95.81,2.33-.08,4.85-2.68,7.69-2.41,2.47.24,5.43.67,8.9,1.29.24.04.48-.02.67-.15l3.15-2.26c.41-.3.97-.29,1.38,0l.6.44c.22.16.27.47.11.68-.05.06-.11.12-.18.15l-5.17,2.52c-.11.05-.21.13-.29.22l-1.88,2.25c-.28.33-.32.81-.1,1.2l.83,1.44c.13.21.05.49-.16.62-.11.06-.23.08-.35.04-.81-.23-1.49-.93-2.03-2.1-.26-.57-.94-.81-1.51-.55-.06.03-.12.06-.18.11l-1.33.95c-.14.11-.33.11-.47,0l-3.74-2.76c-.39-.3-.95-.22-1.25.18,0,0,0,0,0,0l-.77,1.04c-.19.26-.51.39-.83.34l-3.34-.5c-.77-.11-1.49.42-1.6,1.19-.01.09-.02.18-.01.27v.22c.05.96.85,1.72,1.82,1.72,1.16,0,2.65-.02,4.46-.03.39,0,.69.13.88.38.28.39.16.94-.27,1.24-.09.06-.18.1-.28.13-1.95.56-3.16.99-3.63,1.29-.99.64-1.49,1.81-1.27,2.96l1.81,9.6c.13.73.84,1.22,1.57,1.08.34-.06.64-.25.85-.53l5.59-7.55c.27-.35.2-.86-.16-1.12-.28-.21-.67-.21-.96-.01l-3.07,2.2c-.42.31-1.02.22-1.33-.21-.08-.11-.13-.23-.16-.36l-.38-1.81c-.18-.82.19-1.67.92-2.09l3.96-2.28c.53-.31,1.21-.18,1.6.3.92,1.17,2.13,2.03,3.63,2.58.72.27,1.52-.1,1.78-.82.05-.15.08-.3.09-.46.01-.85.28-1.72.79-2.63.13-.24.44-.33.67-.2.05.03.09.06.13.1ZM12.69,124.17c-.14.33.02.71.35.85.14.06.29.06.44.02,2.37-.72,4.93-.98,7.66-.77.44.03.82-.3.86-.74.01-.16-.03-.32-.11-.46-1.11-1.86-2.52-2.75-4.24-2.68-1.77.07-4.29,2.15-4.96,3.78ZM258.81,123.62c.83,2.26,3.48,4.05,4.88,5.19.82.67,2.02.54,2.69-.27.14-.17.25-.37.32-.58.19-.52.2-1.56.03-3.13-.04-.37-.31-.66-.67-.72-.85-.15-1.48.28-1.87,1.27-.15.38-.59.57-.97.42-.16-.06-.29-.18-.37-.32-.9-1.56-1.83-2.56-2.79-3.01-.46-.21-1.01-.01-1.22.45-.1.22-.11.47-.03.7ZM37.18,131.18l-7.38-7.38c-.63-.63-1.65-.63-2.28,0,0,0,0,0,0,0l-2.28,2.28c-.31.31-.32.82,0,1.13.12.12.28.2.45.23,3.34.52,6.31,1.69,8.9,3.51,5.13,3.61,8.06,5.69,8.77,6.23,1.08.82,2.23,1.36,3.46,1.61.8.17,1.59-.36,1.76-1.17,0-.02,0-.04.01-.07.1-.63-.06-1.17-.47-1.62-4.11-4.5-8.85-8.68-14.23-12.53-.26-.19-.63-.13-.82.14-.06.08-.09.18-.11.27l-.03.3c-.03.43.12.84.42,1.14l5.03,5.03c.15.15.15.39,0,.53l-.37.37c-.23.23-.6.23-.83,0ZM47,197.56c2.27-.19,4.52-2.28,3.54-4.68-2.52-6.15-10.39-1.33-12.47,1.97-.71,1.13-.62,2.59.23,3.62,2.09,2.55,4.38,2.72,6.85.49.29-.26.31-.71.05-1-.17-.19-.43-.27-.68-.22l-2.6.56c-.81.18-1.61-.34-1.78-1.16-.08-.37-.01-.76.18-1.09,1.41-2.34,3.44-3.66,6.07-3.97.97-.12,1.84.59,1.94,1.57.06.53-.12,1.06-.49,1.44-.23.24-.63.86-1.22,1.87-.11.19-.05.44.14.55.07.04.15.06.24.05ZM228.46,198.3c.81-.01,1.53-.48,2.16-1.41.26-.38.77-.51,1.18-.3l8.79,4.54c.32.16.71.04.87-.28.02-.04.04-.09.05-.13l.07-.27c.15-.59-.12-1.2-.65-1.49l-7.99-4.29c-.31-.17-.45-.54-.33-.87l.66-1.89c.15-.43-.08-.9-.5-1.05-.07-.03-.15-.04-.23-.04h-.06c-.61,0-1.17.32-1.47.85l-3.15,5.62c-.18.33-.06.74.26.92.1.06.22.09.34.09ZM54.97,199.99c-1.29-1.72-3.73-2.08-5.46-.79l-4.42,3.31c-1.72,1.29-2.08,3.73-.79,5.46l.32.43c1.29,1.72,3.73,2.08,5.46.79l4.42-3.31c1.72-1.29,2.08-3.73.79-5.46l-.32-.43ZM225.74,205.15c-.39-.66-.16-1.52.51-1.9.1-.06.21-.11.33-.14l2.62-.73c.31-.09.49-.42.4-.73-.04-.13-.12-.24-.23-.32-3.99-2.71-8.71,3.18-3.89,6.59.8.57,1.86.61,2.71.12l3.36-1.94c.7-.41,1.6-.16,2.01.54.06.11.11.22.14.34l.09.32c.24.86-.26,1.76-1.12,2-.09.03-.18.04-.28.05l-2.03.21c-.53.05-.92.52-.87,1.05.02.2.1.39.24.54,2.07,2.41,4.76.03,6.04-1.85,1.72-2.54-.84-5.33-3.24-5.71-.41-.06-.84.01-1.2.22l-3.74,2.16c-.57.33-1.29.14-1.62-.43,0,0,0,0,0,0l-.23-.39ZM54.72,219.68c.37-.3.43-.85.13-1.23l-2.88-3.54c-.31-.37-.26-.92.11-1.23,0,0,.01,0,.02-.01l7.12-5.8c.5-.41.62-1.14.26-1.68l-.15-.25c-.19-.29-.58-.37-.87-.17-.02.01-.03.02-.05.03l-9.19,7.49c-.34.28-.4.78-.12,1.12,0,0,0,0,0,0l4.41,5.42c.22.27.63.31.9.09l.31-.25ZM228.34,219.03c.38-.46.33-1.14-.13-1.52l-8.89-7.51c-.46-.38-1.14-.33-1.52.13l-.03.03c-.38.46-.33,1.14.13,1.52h0l8.89,7.51c.46.38,1.14.33,1.52-.13h0s.03-.03.03-.03ZM62.72,227.69c.34-.34.34-.9,0-1.25l-3.26-3.26c-.35-.34-.35-.9-.02-1.24,0,0,.01-.01.02-.02l6.56-6.57c.46-.47.5-1.21.09-1.72l-.18-.23c-.23-.27-.63-.31-.9-.08-.01.01-.03.02-.04.03l-8.47,8.48c-.32.32-.32.83,0,1.15,0,0,0,0,0,0l5,5c.25.25.65.25.91,0l.29-.29ZM214.83,221.31c-1.2,1.15-2.7.49-4.5-1.98-.33-.45-.97-.55-1.43-.21-.3.22-.46.59-.4.96.08.58.51,1.22,1.3,1.92.8.71,3.08,3.02,6.84,6.92.39.41,1,.54,1.53.32l.03-.02c.41-.18.6-.65.43-1.06-.02-.04-.04-.09-.07-.13-.48-.71-1.29-1.58-2.44-2.59-1.06-.94-1.08-1.9-.07-2.87,1.01-.97,1.96-.91,2.86.19.97,1.19,1.8,2.03,2.49,2.54.36.26.87.18,1.13-.18.03-.04.06-.09.08-.14l.02-.03c.24-.52.13-1.13-.26-1.54-3.75-3.91-5.97-6.27-6.65-7.1-.67-.81-1.3-1.27-1.87-1.38-.55-.11-1.09.25-1.2.8-.08.38.07.77.38,1.01,2.4,1.89,3,3.42,1.8,4.57ZM64.8,230.9l5.31,3.93c.28.21.68.15.89-.13l.25-.34c.28-.37.2-.9-.17-1.18,0,0,0,0,0,0l-3.25-2.41c-.35-.25-.43-.75-.18-1.11,0,0,0,0,0,0l1.34-1.81c.3-.41.87-.49,1.28-.19h0l3.13,2.32c.18.14.44.1.58-.09,0,0,0,0,0,0l.2-.27c.38-.51.27-1.24-.24-1.62l-1.98-1.46c-.68-.5-.85-1.44-.39-2.15l.3-.45c.35-.54,1.08-.7,1.62-.34.02.01.04.03.06.04l3.26,2.42c.34.24.82.16,1.06-.19.19-.27.18-.62,0-.88-1.26-1.63-2.85-3.07-4.76-4.32-.56-.37-1.32-.23-1.72.31l-6.71,9.07c-.2.27-.14.65.13.86h0ZM82.27,234.88c-.59-.51-1.24-.81-1.93-.9-.42-.06-.8.23-.86.65-.02.14,0,.28.06.41.39.89.58,1.51.57,1.88-.03.85-.77,1.49-1.65,1.44-.25-.01-.5-.08-.72-.2-3.11-1.7,1.33-6.66,2.85-7.85.62-.48,1.51-.38,1.99.24.17.21.27.46.3.73l.29,2.86c.02.25.24.43.49.4.11-.01.2-.06.28-.13,2.08-2.18,1.59-4.78-.95-6.27-3.59-2.1-7.78,4.81-8.61,7.24-.41,1.19,0,2.51,1.01,3.26l3.41,2.52c.48.36,1.16.26,1.52-.22.03-.05.07-.1.09-.15l2.18-4.23c.29-.56.16-1.26-.32-1.68ZM207.84,230.69c.01-1.14-1-2.07-2.25-2.09-1.26-.02-2.29.89-2.31,2.03-.01,1.14,1,2.07,2.25,2.09,1.26.02,2.29-.89,2.3-2.03ZM195.57,236.58c.16.27.06.62-.21.78-.19.11-.43.1-.61-.03l-5.14-3.6c-.5-.35-1.19-.23-1.55.27-.14.19-.21.43-.2.66,0,.29.09.57.26.84,2.07,3.33,3.84,6.36,5.31,9.09.22.42.64.7,1.11.75l.56.06c.42.04.79-.26.83-.68.02-.16-.02-.32-.09-.45l-3.04-5.26c-.06-.1-.05-.23.02-.33l.29-.4c.06-.08.18-.1.27-.03,0,0,0,0,0,0l5.17,4.01c.64.49,1.56.37,2.05-.26.18-.24.29-.52.3-.82,0-.07-.16-.4-.5-1-1.01-1.78-2.91-4.85-5.71-9.21-.25-.39-.75-.51-1.14-.28l-.37.21c-.36.21-.49.67-.28,1.04,0,0,0,0,0,0l2.67,4.64ZM82.65,243.07c-.11.21-.03.47.18.58l6.69,3.45c.21.11.47.03.58-.18.05-.09.06-.19.04-.29l-.33-1.53c-.03-.12-.11-.23-.22-.29l-4.23-2.19c-.21-.11-.3-.37-.19-.58.01-.02.02-.04.04-.06l1.79-2.42c.13-.17.36-.22.55-.12l3.86,2c.21.11.47.02.58-.19.02-.05.04-.1.04-.15l.12-1.12c.02-.17-.08-.34-.23-.42l-3.68-1.9c-.21-.11-.29-.37-.18-.58l1.15-2.25c.11-.21.37-.29.58-.18l4.34,2.23c.21.11.47.02.58-.19.02-.05.04-.1.04-.15l.13-1.21c.02-.17-.08-.34-.23-.42l-5.77-2.98c-.21-.11-.47-.03-.58.18l-5.65,10.96ZM187.28,238.36c-1.01-1.92-3.38-2.65-5.3-1.64l-.41.21c-1.92,1.01-2.65,3.38-1.64,5.3l2.51,4.76c1.01,1.92,3.38,2.65,5.3,1.64l.41-.21c1.92-1.01,2.65-3.38,1.64-5.3h0l-2.51-4.76ZM103.04,252.76c2.36.84,5.3-1.37,6.58-4.94h0c1.28-3.57.41-7.15-1.95-7.99h0c-2.36-.84-5.3,1.37-6.58,4.94s-.41,7.15,1.95,7.99h0ZM174.15,240.71c-.2-.57-.82-.87-1.39-.67h-.04c-.57.21-.87.83-.67,1.4h0l3.71,10.72c.2.57.82.87,1.39.67h.04c.57-.21.87-.83.67-1.4,0,0,0,0,0,0l-3.71-10.72ZM118.54,249.98c.16-.63-.22-1.27-.84-1.43l-2.18-.56c-.72-.19-1.15-.92-.97-1.64l.22-.85c.16-.59.76-.94,1.34-.79l4.39,1.13c.3.08.62-.1.7-.4,0,0,0,0,0,0l.1-.43c.16-.58-.19-1.18-.78-1.34,0,0,0,0,0,0l-5.76-1.49c-.72-.18-1.46.25-1.64.97,0,0,0,0,0,0l-2.78,10.76c-.13.5.17,1,.67,1.13l.36.09c.6.15,1.21-.2,1.37-.8l1.01-3.92c.12-.47.6-.75,1.07-.63.03,0,.07.02.1.03l2.67,1.04c.32.13.69-.03.82-.36,0-.02.02-.05.02-.07l.12-.44ZM165.12,243.22l.63,2.95c.19.86-.36,1.72-1.23,1.91,0,0,0,0-.01,0l-.83.18c-.56.12-1.11-.23-1.23-.78,0,0,0,0,0,0l-.56-2.6c-.12-.59-.57-1.06-1.16-1.22l-.55-.14c-.36-.09-.72.13-.81.49-.02.1-.03.2,0,.29l2.45,11.41c.04.16.13.31.25.42.52.45,1.2.49,2.03.1.41-.19.58-.67.39-1.08,0-.01-.01-.03-.02-.04-.97-1.81-1.29-3.22-.98-4.21.29-.91,1.27-1.41,2.18-1.11.58.19,1.01.66,1.15,1.25l.79,3.45c.13.57.69.92,1.25.8l.42-.09c.47-.1.77-.57.67-1.04l-2.37-11.04c-.12-.58-.69-.95-1.27-.82,0,0,0,0,0,0l-.66.14c-.36.07-.59.42-.51.78,0,0,0,0,0,0ZM157.35,247.68c-.29-2.35-1.76-3.43-4.43-3.22-.5.04-1.29.62-2.38,1.74-3.17,3.29,1.93,5.24,4.39,6.03.72.23,1.21.58,1.46,1.03.13.23.07.77-.19,1.61-.26.84-1.16,1.3-1.99,1.04-.24-.08-.47-.21-.65-.39l-1.96-1.96c-.22-.22-.57-.25-.83-.08-.67.45-.64,1.21.09,2.27,3.49,5.08,11.06-.09,6.53-4.45-.35-.33-1.87-1.03-4.55-2.08-.68-.27-1.01-1.03-.74-1.72.02-.04.03-.08.05-.12l.21-.4c.25-.47.82-.65,1.28-.41l3.05,1.58c.23.11.5.02.62-.21.04-.08.06-.17.04-.26ZM136.08,251.95c.05-.65-.43-1.23-1.08-1.28l-2.26-.18c-.74-.06-1.29-.71-1.24-1.45l.07-.88c.05-.61.58-1.07,1.19-1.02l4.55.37c.31.03.59-.2.62-.52,0,0,0,0,0,0l.03-.44c.05-.6-.4-1.14-1.01-1.19l-5.97-.49c-.75-.06-1.4.5-1.46,1.24l-.9,11.14c-.04.51.34.96.85,1,0,0,0,0,0,0l.37.03c.62.05,1.17-.41,1.22-1.02,0,0,0,0,0,0l.33-4.05c.04-.49.47-.85.95-.81.03,0,.07,0,.1.01l2.82.57c.34.07.68-.15.75-.49,0-.02,0-.05.01-.08l.05-.45ZM143.74,254.27c.78-.02,1.53.93,2.24,2.84.24.65.47,1.03.7,1.16.43.25.89.3,1.38.16.32-.09.52-.43.43-.75,0,0,0-.01,0-.02-1.54-4.81-2.78-8.61-3.72-11.42-.22-.65-.65-.96-1.29-.94-.65.02-1.06.36-1.23,1.02-.77,2.85-1.78,6.73-3.03,11.62-.08.33.12.66.45.74,0,0,0,0,.01,0,.49.11.95.03,1.37-.24.22-.14.43-.54.63-1.2.6-1.95,1.29-2.94,2.07-2.97Z"/>
  <path class="cls-2" d="M121.89,29.86c.13-.19.09-.45-.11-.58-.12-.08-.26-.1-.39-.05-2.29.91-3.76,2.58-4.42,5.01-.14.52-.67.83-1.19.69-.02,0-.04-.01-.06-.02-1.08-.37-1.88-1.09-2.4-2.18-.2-.41-.03-.9.38-1.09.14-.07.3-.09.46-.08.61.08,1.29.02,2.05-.18.63-.17,1-.82.82-1.45-.08-.27-.25-.51-.48-.67-1.73-1.15-2.91-2.7-3.54-4.65-.08-.26.07-.54.34-.62.13-.04.27-.02.38.04,2.04,1.18,3.47,2.56,4.29,4.13.11.22.38.3.59.19.08-.04.14-.11.19-.19l2.82-5.46c.23-.44.05-.98-.39-1.21-.09-.05-.19-.08-.29-.09-.59-.07-1.08-.21-1.49-.42-.23-.12-.33-.39-.23-.63l3.3-8.45c.27-.69,1.04-1.03,1.73-.76,0,0,0,0,0,0l.34.13c.45.18.68.69.5,1.14,0,0,0,0,0,0l-2.05,5.25c-.14.35-.11.75.08,1.08l1.51,2.62c.18.32.58.43.89.25.02-.01.04-.02.06-.04.43-.31,1.13-.54,2.08-.68,1.09-.16,2.09.49,2.25,1.45.01.08.02.16.02.24,0,2.66-4.34,6.03-6.43,7.52-.2.14-.35.33-.44.55-.19.46-.46.89-.83,1.28-.17.18-.45.19-.63.03-.06-.06-.11-.13-.13-.22-.16-.61-.02-1.24.42-1.88ZM126.65,23.89l-1.01-1.03c-.12-.12-.31-.12-.42,0,0,0,0,0,0,0l-.37.37c-1.34,1.31-2.15,2.66-1.81,3.02l.18.19c.35.35,1.71-.44,3.06-1.76,0,0,0,0,0,0l.37-.37c.12-.11.12-.3,0-.42Z"/>
  <path class="cls-2" d="M159.5,24.02c.88-1.67,2.5-2.67,4.87-3,.44-.06.84.24.91.67.02.1,0,.21-.02.31-.79,3.18-4.19,5.61-6.84,7.12-.35.2-.49.63-.33,1,.35.81.94,1.24,1.77,1.27.75.03,1.3.7,1.23,1.5-.03.34-.17.66-.4.91-.87.95-2.13,2.08-3.78,3.4-.35.28-.46.77-.26,1.17.74,1.51,1.14,2.73,1.2,3.68.06.84.71,1.52,1.55,1.61l2.28.24c.55.06,1.05-.34,1.11-.9.02-.21-.02-.43-.13-.61l-2.11-3.65c-.08-.15-.08-.33,0-.47.57-.95,1.69-.42,3.37,1.6.83,1,2.25,3.1,4.27,6.3.32.5.17,1.17-.34,1.49-.21.13-.45.19-.69.16l-10.21-1.08c-1.22-.13-2.19-1.09-2.31-2.31l-.37-3.69c-.05-.45-.45-.79-.91-.75-.35.03-.63.28-.71.62l-1.02,3.95c-.23.9-1,1.56-1.93,1.66l-.7.07c-.59.06-1.11-.37-1.17-.96-.02-.16,0-.32.06-.47.44-1.22,1.1-2.4,1.97-3.54.23-.3.28-.71.12-1.05-.16-.34-.46-.64-.9-.89-.47-.27-.61-.87-.32-1.36.07-.12.16-.22.27-.3.02-.02,1.17-.73,3.45-2.13.46-.28.63-.86.39-1.34-.62-1.27-.73-2.11-.33-2.5.18-.18.44-.26.68-.22,1.04.13,1.69.05,1.95-.26.15-.18.12-.45-.06-.61-.05-.04-.11-.07-.17-.08-1.77-.41-3.21-1.65-4.34-3.71-.02-.03-.03-.07-.04-.11l-.57-5.63c-.02-.25-.24-.44-.5-.42-.1,0-.2.05-.27.12-.54.49-.98,1.06-1.31,1.71-.14.25-.1.56.1.77.64.69,1.07,1.39,1.28,2.1.12.4.1.83-.07,1.21-1.89,4.35-3.09,7.28-3.6,8.79-.93,2.78.62,5.42.05,7.75-.46,1.87-1.24,3.29-2.34,4.28-.27.25-.64.36-1,.3-1.21-.18-1.75-1.05-1.62-2.6.54-6.27,1.96-12.61,4.27-19.02.13-.37.09-.78-.12-1.11-.43-.67-1-1.05-1.71-1.14-.82-.1-1.38-.87-1.24-1.72.07-.43.31-.81.66-1.07,4.23-3.03,6.91-5.03,8.03-5.98.51-.44,1.16-.68,1.83-.67,1.35,0,2.66-.55,3.95-1.66.25-.21.63-.19.84.06.11.13.16.3.14.47-.25,1.81-1.97,3.15-3.72,4.76-.24.22-.42.5-.53.81-.78,2.21.49,4.76.56,6.86.02.4.36.71.77.69.22-.01.42-.12.55-.3,1.27-1.81,2.62-2.45,4.03-1.92.18.06.38-.01.47-.18ZM156.35,34.37c.16.11.49-.09.74-.44.25-.36.33-.73.17-.85h0c-.16-.11-.49.09-.74.44-.25.36-.33.73-.17.85h0Z"/>
  <path class="cls-2" d="M160.93,15.3l2.33.91c.84.33,1.26,1.28.93,2.12-.12.3-.31.55-.57.74l-4.35,3.12c-.37.27-.86.33-1.29.16l-1.1-.43c-.5-.19-.75-.75-.56-1.26.11-.29.36-.51.66-.59l2.56-.71c.66-.19,1.04-.87.85-1.53-.05-.17-.13-.32-.24-.46-.99-1.18-.9-1.89.29-2.12.16-.03.33,0,.49.05Z"/>
  <path class="cls-2" d="M90.21,42.76c.83-2.98.87-6.02.14-9.12-.53-2.26-2.31-4.95-2.66-7.21-.09-.64-.06-1.67.11-3.1.04-.34.29-.61.61-.68.87-.21,1.8-.22,2.8-.03.28.05.52.21.68.43,1.51,2.07,2.26,3.53,2.23,4.39-.09,3.43-.15,6.12-.2,8.07,0,.28.05.55.17.8l2.06,4.44c.27.57.94.82,1.52.55.14-.07.27-.16.37-.28,1.89-2.13,4.1-3.29,6.26-.54.61.77.73,2.3,1.07,3.27.11.31.37.55.7.64l4.11,1.06c.72.19,1.2.85,1.16,1.58-.1,1.93-1.88,2.18-5.35.76-.49-.2-1.06-.06-1.41.35-1.39,1.67-3.02,3.03-4.88,4.07-.58.33-1.28.34-1.87.04-1.07-.54-2.26-1.81-3.59-3.81-.46-.69-.29-1.64.4-2.13l1.28-.92c.42-.29.51-.87.22-1.29,0,0,0,0,0-.01l-2.23-3.11c-.18-.25-.52-.31-.77-.13-.09.07-.17.16-.2.27-1.2,3.58-2.05,7.01.7,10.53,1.41,1.8,2.43,3.49,3.05,5.07.23.57-.05,1.23-.62,1.46-.41.17-.88.07-1.19-.24-1.3-1.26-2.22-2.46-2.76-3.6-.13-.28-.46-.41-.74-.28-.2.09-.32.28-.33.5-.09,2.7-1.31,4.2-3.67,4.51-.86.12-1.66-.49-1.78-1.36-.06-.48.09-.96.43-1.3,1.81-1.92,2.68-4.31,2.6-7.16-.05-1.84-1.83-4.39-3.14-6.84-.18-.34-.61-.47-.95-.29-.09.05-.16.11-.22.19-1.05,1.37-2.58,1.74-4.57,1.1-.34-.11-.53-.48-.42-.83.01-.03.02-.06.04-.09l3.2-6.19c.37-.71.39-1.54.07-2.27-1.12-2.51-1.74-4.79-1.86-6.84-.05-.83.58-1.55,1.41-1.61.27-.02.55.04.79.17l2.56,1.32c1.31.67,1.99,2.14,1.67,3.58-1.15,5.16.05,7.52,2.12,12.18.1.24.38.34.62.24.13-.06.23-.17.27-.31ZM92.81,29.09c0-.29-.24-.53-.53-.53s-.53.24-.53.53.24.53.53.53.53-.24.53-.53ZM99.9,44.91c.47.29,1.2-.04,1.62-.74,0,0,0,0,0,0,.42-.69.38-1.49-.09-1.78h0c-.47-.29-1.2.04-1.62.74,0,0,0,0,0,0-.42.69-.38,1.49.09,1.78h0ZM99.55,48.21c0-.54-.44-.98-.98-.98h0c-.54,0-.98.44-.98.98h0c0,.54.44.98.98.98s.98-.44.98-.98Z"/>
  <path class="cls-1" d="M126.65,23.89c.11.12.11.31,0,.42l-.37.37c-1.34,1.32-2.71,2.11-3.06,1.76,0,0,0,0,0,0l-.18-.19c-.34-.36.47-1.71,1.81-3.02l.37-.37c.12-.12.31-.12.42,0,0,0,0,0,0,0l1.01,1.03Z"/>
  <path class="cls-2" d="M200.9,36.04c-3.63,1.68-6.05,3.05-7.26,4.12-.52.45-1.34,1.89-2.46,4.31-1.64,3.53-3.47,6.44-5.49,8.75-.99,1.13-1.97.92-2.95-.64-.15-.24-.25-.5-.32-.77l-.86-3.49c-.07-.26-.33-.42-.59-.36-.13.03-.25.12-.31.25l-1.5,2.9c-.49.93-1.59,1.34-2.56.96l-1.68-.66c-.85-.33-1.27-1.29-.94-2.13.07-.18.17-.34.3-.49.48-.53,3.79-3.88,9.94-10.03,2.28-2.28,3.93-4.6,4.95-6.95.16-.35.51-.56.89-.54.86.06,1.35.61,1.48,1.64.08.67.69,1.14,1.36,1.06.33-.04.63-.22.83-.48l1.95-2.64c.17-.22.12-.53-.1-.7-.13-.09-.29-.12-.44-.08l-3,.83c-.34.1-.71.04-1.01-.16-.83-.55-1.86-1.19-3.09-1.94-.57-.35-.78-1.07-.47-1.61.06-.11.14-.2.24-.28.21-.17.76-.31,1.65-.4,3.11-.32,6.19-.13,9.24.58.93.21,1.49.43,1.67.66.66.81.52,2.08-.33,2.96-1.31,1.38-3.05,2.93-5.21,4.64-.19.15-.22.43-.07.62.02.03.05.06.08.08l.24.17c.09.07.22.08.31.01,3.4-2.18,7.15-3.37,11.26-3.58,1.65-.09,2.95.65,3.89,2.21.39.66.18,1.51-.48,1.91-.09.06-.19.1-.3.13-2.67.82-4.93,2.45-6.78,4.88-.34.45-.98.54-1.43.19-.01,0-.02-.02-.03-.02-1.53-1.26-2.6-1.1-3.22.47-.22.56.05,1.19.61,1.42.17.07.35.09.53.07,1.65-.19,3.07-.02,4.25.52.67.31.96,1.09.66,1.76,0,.02-.02.04-.03.05l-4.08,7.9c-.11.22-.07.49.1.67.77.82,1.15,1.63,1.15,2.43,0,.34-.21.65-.52.79-3.94,1.73-7.15,1.02-9.62-2.11-.33-.42-.26-1.02.16-1.35.14-.11.32-.18.5-.2l1.6-.16c1.02-.11,1.75-1.02,1.65-2.03-.01-.14-.04-.27-.09-.4-.25-.72-.52-1.15-.83-1.28-.53-.23-1.08,0-1.66.68-.54.63-.98,1.42-1.32,2.39-.38,1.08-1.56,1.65-2.63,1.27,0,0-.01,0-.02,0l-.21-.07c-.89-.32-1.35-1.3-1.04-2.19.03-.09.07-.17.12-.25,3.55-6.35,7.91-11.91,13.83-15.44.18-.11.25-.34.16-.53l-.05-.09c-.11-.23-.39-.33-.62-.22ZM187.81,40.62c.45.34,1.41-.2,2.16-1.19.75-.99.99-2.07.55-2.4-.45-.34-1.41.2-2.16,1.19-.75.99-.99,2.07-.55,2.4ZM186.97,42.48l-1.77-.84c-.36-.18-.8-.03-.98.33,0,0,0,0,0,0l-.38.81c-.83,1.72-.88,3.42-.11,3.8l.29.14c.77.37,2.07-.73,2.9-2.45,0,0,0,0,0,0l.39-.81c.18-.36.03-.8-.33-.98,0,0,0,0,0,0ZM199.73,46.62l-3.65-.8c-.32-.07-.63.13-.7.45l-.07.31c-.32,1.44.43,2.83,1.67,3.1l.31.07c1.24.27,2.5-.67,2.82-2.11l.07-.31c.07-.32-.12-.63-.44-.71,0,0,0,0,0,0Z"/>
  <circle class="cls-1" cx="92.28" cy="29.09" r=".53"/>
  <path class="cls-2" d="M118.57,38.63c-.39.05-.74-.23-.79-.62-.03-.24.07-.48.25-.63,2.2-1.92,4.76-4.22,7.67-6.89.62-.57,1.4-.88,2.33-.94.56-.03,1.04.4,1.07.96.01.24-.06.47-.19.66l-4.95,6.68c-.11.16-.29.26-.48.28l-4.91.5Z"/>
  <ellipse class="cls-1" cx="156.81" cy="33.73" rx=".79" ry=".35" transform="translate(38.48 142.01) rotate(-54.6)"/>
  <ellipse class="cls-1" cx="189.16" cy="38.82" rx="2.25" ry="1.01" transform="translate(44.32 166.53) rotate(-53)"/>
  <path class="cls-2" d="M121.65,46.42c1.21.05,2.05-.06,2.51-.33.4-.25.56-.75.38-1.19l-.26-.64c-.19-.45-.71-.67-1.16-.48-.67.27-1.34.72-1.99,1.35-.43.42-1.05.58-1.63.43l-1.4-.36c-.41-.1-.66-.51-.55-.92.04-.17.14-.31.27-.42l5.13-3.97c.11-.09.25-.15.39-.18,1.79-.33,4.8-1.27,5.18-.97.54.42.58,1.24.09,1.83-.1.12-.21.22-.34.3-1.37.89-1.78,1.98-1.22,3.26,1.86,4.22-1.45,5.01-4.58,4.52-.24-.04-.45-.17-.58-.36l-.72-1c-.18-.25-.12-.59.13-.77.1-.07.23-.11.35-.1Z"/>
  <path class="cls-2" d="M71.17,57.82c-.24-.22-.62-.19-.83.06-.13.15-.18.37-.13.56.99,3.39.11,5.83-2.65,7.34-.34.18-.53.55-.51.93.18,3.08,4.7,6.19,6.12,7.78.43.48.49,1.19.13,1.58-.11.12-.25.2-.41.24-.67.14-1.76-.37-3.26-1.54-.36-.28-.86-.29-1.22-.02-.4.3-.63,1.15-1.39,1.51-2.19,1.04-3.2-.19-3.62-2.28-.52-2.61-1.29-4.74-2.3-6.39-.14-.21-.42-.28-.64-.14-.16.1-.24.29-.2.47.31,1.57.25,3.2-.18,4.88-.11.43-.55.68-.97.58-.26-.07-.46-.25-.55-.51-.87-2.52-1.28-5.53-1.23-9.03.01-.88-.33-1.72-.95-2.34l-3.18-3.18c-.29-.29-.71-.4-1.11-.29l-1.12.31c-.32.09-.65-.09-.74-.41-.03-.1-.03-.2,0-.3.73-3.14,2.03-6.81.88-9.93-.12-.33.04-.69.37-.81.06-.02.13-.04.19-.04,2.66-.11,5.29,1.75,3.82,4.92-1.43,3.09-2.17,4.76-2.21,5.01-.03.22.12.43.34.47.1.02.21,0,.29-.07.53-.36,1.49-.31,2.89.16.59.2,1.22.21,1.81.05l1.22-.34c.88-.25,1.79.26,2.04,1.14,0,0,0,0,0,.01l1.9,6.82c.19.7.92,1.1,1.61.91.54-.15.93-.63.96-1.19.17-3.19,1.82-7.72.32-11.3-.15-.36-.36-.68-.64-.96-2.83-2.83-6.79-5.99-7.29-10.57-.04-.42.26-.8.68-.85.23-.03.46.05.62.22l5.37,5.37c.27.27.71.28.98,0,0,0,0,0,0,0l1.31-1.3c.4-.4,1.05-.41,1.46,0,.09.09.16.19.21.31.55,1.22.73,2.59.54,4.12-.28,2.3.73,3.59,2.11,5.03,2.92,3.04,6.52,6.52,10.79,10.45.25.23.37.49.36.79,0,.41-.34.75-.75.75-.11,0-.22-.03-.32-.08-3.18-1.55-5.83-3.5-7.94-5.83-1.29-1.43-2.29-2.45-2.98-3.06Z"/>
  <path class="cls-1" d="M186.97,42.48c.36.17.52.61.34.97,0,0,0,0,0,0l-.39.81c-.83,1.73-2.12,2.83-2.9,2.46,0,0,0,0,0,0l-.29-.14c-.77-.38-.72-2.08.11-3.8l.38-.81c.17-.36.61-.52.97-.34,0,0,0,0,0,0l1.77.84Z"/>
  <ellipse class="cls-1" cx="100.66" cy="43.65" rx="1.47" ry="1" transform="translate(11.18 107.14) rotate(-58.8)"/>
  <path class="cls-1" d="M199.73,46.62c.32.07.52.38.45.7,0,0,0,0,0,0l-.07.31c-.32,1.44-1.58,2.38-2.82,2.11l-.31-.07c-1.24-.27-1.99-1.66-1.67-3.1l.07-.31c.07-.32.38-.52.7-.45l3.65.8Z"/>
  <circle class="cls-1" cx="98.57" cy="48.21" r=".98"/>
  <path class="cls-2" d="M57.85,53.27c.19-1.07.97-2.18,2.34-3.31.61-.5,1.53-.33,2.06.38.13.17.22.36.29.57.4,1.33,1.3,2.23,2.71,2.69.78.26,1.16,1.13.86,1.93-.14.37-.42.68-.77.87-2.18,1.17-3.61.72-4.29-1.36-.11-.34-.33-.63-.62-.84-.55-.39-1.23-.52-2.04-.39-.26.04-.5-.13-.54-.39,0-.05,0-.1,0-.15Z"/>
  <path class="cls-2" d="M228.7,66.67c.17.02.32-.1.34-.27.01-.12-.04-.23-.14-.3-1.81-.99-3.18-1.79-4.09-2.39-1.53-1-2.64-.76-4.23-.36-.88.22-1.76-.22-1.98-.99-.03-.1-.04-.2-.05-.3-.03-.49-.17-1.07-.44-1.72-.16-.37-.48-.65-.86-.75-.79-.21-2.32-.63-4.59-1.28-1.04-.3-1.68-1.33-1.43-2.3.06-.21.15-.41.29-.59.24-.32.79-.58,1.64-.77,4.15-.93,6.74.53,7.77,4.39.09.36.46.57.82.48.06-.02.13-.04.18-.08,1.45-.89,2.9-1.78,4.34-2.69,1.74-1.11,2.16-2.69,1.25-4.75-.14-.32.01-.7.33-.84.17-.08.37-.07.54.02,2.21,1.14,2.96,3.14,2.25,5.99-.05.21-.18.39-.35.51l-3.88,2.78c-.6.43-.74,1.27-.31,1.87.12.17.29.32.48.42l4.84,2.5c1.03.54,2.29.34,3.1-.49l4.94-5.03c.56-.57,1.48-.58,2.06-.02.1.1.19.21.25.33l.15.24c.47.73.36,1.69-.25,2.3l-3.47,3.48c-.33.34-.46.82-.34,1.27l.42,1.49c.13.46-.14.94-.61,1.07-.15.04-.3.04-.45,0l-4.94-1.28c-.26-.07-.52.09-.59.34-.01.05-.02.11-.01.17l.25,2.52c.04.35-.21.67-.57.71-.1.01-.2,0-.29-.04-3-1.07-5.73-2.69-8.19-4.87-.38-.33-.74-.31-1.08.06-.42.46.7,2.39,1.48,4.02.19.39.03.86-.36,1.05-.04.02-.08.04-.13.05l-1.88.52c-.47.13-.76.61-.63,1.09.07.25.24.46.47.57.97.48,1.71,1.01,2.23,1.6.7.77.72,1.92.06,2.57-.12.12-.26.21-.42.28-1.73.79-3.34.43-4.84-1.08-.26-.26-.68-.27-.94-.01-.09.09-.15.19-.18.31l-.81,3.12c-.15.59-.75.94-1.34.79-.06-.02-.11-.03-.17-.06-2.47-1.08-2.81-2.62-1-4.63.29-.33.26-.84-.07-1.13-.07-.06-.14-.11-.22-.14-.07-.03-1.15-.31-3.23-.86-.71-.19-1.16-.89-1.03-1.61.32-1.72,2.03-2.05,3.74-2.52.38-.1.61-.49.51-.87-.05-.2-.18-.36-.37-.45l-5.51-2.85c-.4-.2-.61-.66-.5-1.1l.1-.41c.16-.43.64-.65,1.07-.49.04.01.08.03.11.05,3.81,2.16,7.35,3.58,10.62,4.26.25.06.49-.1.55-.35.04-.16-.01-.32-.13-.43l-2.62-2.62c-.48-.49-.48-1.27,0-1.75.17-.17.39-.29.63-.34.94-.2,2.1-.14,3.06.35,1.61.83,3.38,1.25,5.33,1.26.5,0,.99.09,1.45.27,1.18.45,1.8.69,1.87.7ZM214.07,73.95c.24.48.62.67,1.15.56.12-.02.23-.07.33-.15,1.47-1.16,2.14-1.87,2.01-2.14-.13-.27-1.11-.17-2.92.31-.12.03-.24.09-.33.17-.4.35-.48.77-.24,1.25Z"/>
  <path class="cls-2" d="M227.76,140.44c0,48.23-39.1,87.33-87.33,87.33s-87.33-39.1-87.33-87.33c0-48.23,39.1-87.33,87.33-87.33,48.23,0,87.33,39.1,87.33,87.33ZM166.87,200.94c-5.69-6.71-9.56-14.44-11.62-23.18-1.75-7.45-3.21-15.66-4.36-24.63-.04-.31.18-.6.49-.64.03,0,.06,0,.09,0h6.24c.44,0,.84.28.98.7,3.03,9.2,6.9,18.38,11.61,27.53,2.73,5.3,4.6,10.4,5.63,15.29.04.21.24.34.45.29.05,0,.09-.03.13-.05,4.23-2.75,7.97-5.95,11.22-9.58.3-.33.27-.85-.07-1.14-.11-.09-.23-.16-.37-.19-12.67-2.73-19.84-19.86-23.46-30.99-2.56-7.85-2.86-15.99-3.66-23.68-.18-1.66-1.11-2.47-2.79-2.44-.34,0-2.3.05-5.89.13-.3,0-.55-.24-.56-.54,0-.05,0-.1.02-.15.66-2.55,2.13-4.65,4.4-6.31,8.49-6.2,12.94-8.97,18.18-15.81,2.56-3.33,5.64-7.53,9.23-12.6.19-.27.13-.63-.14-.82-.04-.03-.08-.05-.12-.07-6.65-2.71-11.55-3.6-21.53-5.78-.36-.08-.71-.2-1.05-.35-7-3.26-9.3-9.66-8.97-17.06.03-.5-.22-.96-.63-1.23-6.26-4.02-13.29-2.88-19.47.64-.29.16-.43.49-.35.81,2.01,8.45-1.87,16.37-10.86,17.86-7.06,1.18-13.65,2.76-19.78,4.73-.49.16-.75.68-.6,1.17.04.13.11.25.21.35,1.52,1.64,3.49,3.26,4.86,5.1,2.79,3.75,5.43,7.17,7.93,10.25,2.69,3.32,6.84,7.05,12.45,11.2,2.28,1.68,4.29,4.05,6.04,7.11.3.52.12,1.19-.41,1.49-.17.09-.35.14-.54.14h-3.95c-.73,0-1.41-.39-1.77-1.02l-6.22-10.78c-.15-.25-.42-.41-.72-.41h-.3c-.3,0-.55.25-.55.55,0,.09.02.17.06.25,2.29,4.43,3.54,7.48,3.75,9.13.61,4.77.62,10.01.03,15.7-.84,8.01-5.23,17.55-7.68,24.58-3.23,9.26-9.17,17.02-19.2,18.89-.22.04-.37.24-.33.46.01.07.04.13.08.18,3.01,3.88,6.56,7.25,10.65,10.1.42.3,1.01.19,1.31-.23.08-.11.13-.24.16-.38.66-3.79,2.01-7.38,4.03-11.08,5.25-9.64,9.64-19.99,13.17-31.05.17-.52.66-.88,1.21-.88h5.67c.37,0,.67.29.67.66,0,.02,0,.04,0,.06-.97,12.81-3.06,25.84-8.16,37.43-1.6,3.65-4.63,7-6.56,10.17-.2.32-.1.74.23.94.06.04.12.06.19.08l15.68,4.05c.26.07.53-.1.6-.36.01-.05.02-.1.01-.16-.55-6.96-.44-14.77.33-23.44.63-7.08,2.86-21.61,3.42-32.48.54-10.44,1.16-17.79-.39-25.78-.54-2.78-1.77-4.77-3.7-5.96-8.38-5.18-14.17-8.1-18.68-13.6-3.55-4.32-6.83-7.99-9.86-11.01-.13-.13-.19-.26-.19-.4,0-.47.22-.7.66-.71,6.27-.09,12.16-.63,17.66-1.61,7.36-1.31,13.38-3.37,17.9-9.37.12-.16.21-.34.26-.53l.69-2.7c.09-.36.46-.59.82-.5.19.05.36.18.45.36,3.91,7.66,10.5,11.15,18.45,13.65.53.17.89.66.89,1.22-.02,5.81-.25,10.77-.69,14.88-.31,2.88-1.4,4.93-3.66,6.61-4.53,3.37-7.11,5.38-7.72,6.03-3.49,3.72-3.26,7.22-3.56,13.14-.06,1.18.03,5.42.28,12.72.33,9.47,2.31,21.52,3.11,28.35,1.22,10.42,1.68,20.68,1.65,30.82,0,.37.3.67.67.67.03,0,.06,0,.08,0,5.56-.75,10.88-2.12,15.97-4.1.22-.09.33-.34.24-.55-.02-.04-.04-.08-.07-.12ZM133.59,222.73c3.89-1.86,5.45-4.82,4.67-8.89-1.09-5.67-7.25-3.32-6.89,1.25.15,1.85,1.05,2.82,2.7,2.93.21.01.39-.15.4-.36,0-.08-.02-.17-.06-.23-.71-1.05-1.05-2.69-1.01-4.91.02-.7.6-1.25,1.29-1.23.31,0,.61.13.84.35,1.91,1.86.57,6.59-.49,8.78-.22.45-.49.79-.8,1-.78.53-1.18.83-1.19.9-.04.21.1.4.31.44.08.01.16,0,.23-.03ZM143.37,222.81c3.85-1.89,5.37-4.86,4.55-8.89-1.15-5.63-7.25-3.22-6.84,1.32.17,1.83,1.08,2.79,2.72,2.88.21,0,.39-.16.39-.37,0-.08-.02-.16-.06-.22-.72-1.04-1.07-2.66-1.06-4.87,0-.69.57-1.25,1.26-1.24.32,0,.62.12.85.34,1.92,1.83.64,6.55-.39,8.74-.21.45-.47.79-.78,1-.77.53-1.17.84-1.18.91-.03.21.11.4.32.43.08.01.15,0,.22-.03ZM155.94,222.09c2.58-1.69,1.6-4.29-.16-6.46-.12-.14-.19-.32-.2-.51-.02-.23.09-.41.34-.54.95-.5,1.42-1.57,1.04-2.39-.06-.13-.14-.26-.25-.36-.69-.73-1.66-1.23-2.93-1.48-.44-.09-.89.09-1.15.45l-.41.55c-.14.18-.11.45.08.59.05.04.12.07.18.08,1.61.32,2.48.95,2.62,1.9.05.37-.2.79-.75,1.25-.51.43-.76.86-.75,1.29,0,.36.18.7.49.89,1.75,1.11,2.23,2.57,1.43,4.38-.06.15,0,.32.15.38.09.04.19.03.27-.02ZM126.4,211.49c0-.23-.2-.4-.42-.4l-1.4.04c-.23,0-.4.2-.4.42h0s.34,10.91.34,10.91c0,.23.2.4.42.4l1.4-.04c.23,0,.4-.2.4-.42h0s-.34-10.91-.34-10.91ZM153.78,222.46c-.45-.09-1.19-.56-2.24-1.42-.26-.22-.64-.18-.86.08-.11.13-.16.3-.14.47.13,1.13,1.17,1.71,3.14,1.75.25,0,.45-.2.45-.45,0-.21-.14-.39-.35-.43Z"/>
  <path class="cls-1" d="M166.87,200.94c.15.17.13.44-.05.6-.04.03-.08.06-.12.07-5.09,1.98-10.41,3.35-15.97,4.1-.36.05-.69-.21-.74-.57,0-.03,0-.06,0-.09.03-10.14-.43-20.4-1.65-30.82-.8-6.83-2.78-18.88-3.11-28.35-.25-7.3-.34-11.54-.28-12.72.3-5.92.07-9.42,3.56-13.14.61-.65,3.19-2.66,7.72-6.03,2.26-1.68,3.35-3.73,3.66-6.61.44-4.11.67-9.07.69-14.88,0-.56-.36-1.05-.89-1.22-7.95-2.5-14.54-5.99-18.45-13.65-.17-.34-.57-.47-.91-.31-.18.09-.31.25-.36.45l-.69,2.7c-.05.19-.14.37-.26.53-4.52,6-10.54,8.06-17.9,9.37-5.5.98-11.39,1.52-17.66,1.61-.44,0-.66.24-.66.71,0,.14.06.27.19.4,3.03,3.02,6.31,6.69,9.86,11.01,4.51,5.5,10.3,8.42,18.68,13.6,1.93,1.19,3.16,3.18,3.7,5.96,1.55,7.99.93,15.34.39,25.78-.56,10.87-2.79,25.4-3.42,32.48-.77,8.67-.88,16.48-.33,23.44.02.28-.19.51-.46.53-.05,0-.1,0-.15-.01l-15.68-4.05c-.37-.1-.59-.47-.5-.83.02-.07.04-.13.08-.19,1.93-3.17,4.96-6.52,6.56-10.17,5.1-11.59,7.19-24.62,8.16-37.43.03-.36-.24-.68-.61-.72-.02,0-.04,0-.06,0h-5.67c-.55,0-1.04.36-1.21.88-3.53,11.06-7.92,21.41-13.17,31.05-2.02,3.7-3.37,7.29-4.03,11.08-.1.52-.59.86-1.1.77-.13-.02-.26-.08-.37-.16-4.09-2.85-7.64-6.22-10.65-10.1-.14-.17-.1-.43.07-.56.05-.04.11-.07.18-.08,10.03-1.87,15.97-9.63,19.2-18.89,2.45-7.03,6.84-16.57,7.68-24.58.59-5.69.58-10.93-.03-15.7-.21-1.65-1.46-4.7-3.75-9.13-.14-.27-.03-.6.24-.74.08-.04.16-.06.25-.06h.3c.3,0,.57.16.72.41l6.22,10.78c.36.63,1.04,1.02,1.77,1.02h3.95c.6,0,1.09-.48,1.09-1.09,0-.19-.05-.38-.14-.54-1.75-3.06-3.76-5.43-6.04-7.11-5.61-4.15-9.76-7.88-12.45-11.2-2.5-3.08-5.14-6.5-7.93-10.25-1.37-1.84-3.34-3.46-4.86-5.1-.35-.37-.33-.96.04-1.31.1-.09.22-.16.35-.21,6.13-1.97,12.72-3.55,19.78-4.73,8.99-1.49,12.87-9.41,10.86-17.86-.08-.32.06-.65.35-.81,6.18-3.52,13.21-4.66,19.47-.64.41.27.66.73.63,1.23-.33,7.4,1.97,13.8,8.97,17.06.34.15.69.27,1.05.35,9.98,2.18,14.88,3.07,21.53,5.78.3.12.45.47.33.77-.02.04-.04.08-.07.12-3.59,5.07-6.67,9.27-9.23,12.6-5.24,6.84-9.69,9.61-18.18,15.81-2.27,1.66-3.74,3.76-4.4,6.31-.08.29.1.59.39.67.05.01.1.02.15.02,3.59-.08,5.55-.12,5.89-.13,1.68-.03,2.61.78,2.79,2.44.8,7.69,1.1,15.83,3.66,23.68,3.62,11.13,10.79,28.26,23.46,30.99.44.09.72.52.63.96-.03.14-.09.27-.19.37-3.25,3.63-6.99,6.83-11.22,9.58-.18.11-.41.07-.53-.11-.03-.04-.04-.08-.05-.13-1.03-4.89-2.9-9.99-5.63-15.29-4.71-9.15-8.58-18.33-11.61-27.53-.14-.42-.54-.7-.98-.7h-6.24c-.32,0-.58.25-.59.57,0,.03,0,.06,0,.08,1.15,8.97,2.61,17.18,4.36,24.63,2.06,8.74,5.93,16.47,11.62,23.18ZM134.17,69.14c.12.37.33.64.64.79,1.71.85,3.41,2.02,5.08,3.51.41.36,1.02.39,1.46.07l5.97-4.28c.36-.26.44-.77.18-1.13-.12-.17-.3-.28-.5-.32-4.2-.8-8.35-.59-12.44.63-.3.08-.48.4-.4.71,0,0,0,.01,0,.02ZM165.79,92.46l-1.72,10.22c-.05.3-.14.59-.28.85l-4.04,7.83c-.17.31-.06.71.25.88.24.13.53.1.74-.07,2.56-2.11,4.29-3.53,5.2-4.24,5.16-4.08,8.58-9.01,12.09-14.84.2-.35.09-.79-.25-1-.11-.07-.24-.1-.37-.1h-11.07c-.27,0-.51.2-.55.47ZM131.05,133.82c.02-.48-.35-.88-.83-.9h0l-4.3-.17c-.48-.02-.88.35-.9.83h0l-.12,2.92c-.02.48.35.88.83.9h0l4.3.17c.48.02.88-.35.9-.83h0l.12-2.92ZM150.72,137.19l4.09.14c.46.02.84-.34.86-.8,0,0,0,0,0-.01l.06-1.67c.04-1.14-.76-2.1-1.8-2.14,0,0,0,0,0,0l-2-.06c-1.04-.04-1.91.86-1.95,2l-.06,1.68c-.02.46.34.84.8.86,0,0,0,0,.01,0ZM130.81,142.05c0-.15-.11-.27-.26-.28l-5.86-.19c-.15,0-.27.11-.28.26h0l-.17,5.16c0,.15.11.27.26.28l5.86.19c.15,0,.27-.11.28-.26l.17-5.16ZM156.91,141.84c0-.15-.13-.26-.28-.26l-6.04.24c-.15,0-.26.13-.26.28h0s.2,4.86.2,4.86c0,.15.13.26.28.26l6.04-.24c.15,0,.26-.13.26-.28h0s-.2-4.86-.2-4.86Z"/>
  <path class="cls-2" d="M43.11,101.31c-.09.06-.12.18-.06.28.04.06.1.1.17.09,3.3-.14,5.85.63,7.64,2.31.6.56.66,1.47.15,2.05-.1.11-.21.2-.34.27-.6.33-1.52.48-2.77.45-.24,0-.47-.07-.68-.19l-4.51-2.57c-.19-.1-.33-.27-.41-.48-.19-.49-.16-.97.11-1.44.16-.27.15-.61-.01-.88-2.36-4.03-1.89-8.4-3.47-12.62-.15-.44-.63-.67-1.07-.51-.36.13-.59.48-.56.85.12,2.45-.72,4.52-2.51,6.2-.35.33-.91.32-1.24-.04-.21-.23-.29-.54-.21-.84.67-2.42.89-5.4.66-8.95-.2-3.04-3.08-4.08-5.64-4.43-.47-.06-.8-.5-.73-.97.03-.2.12-.38.26-.51,2.33-2.19,4.83-2.76,7.52-1.69.33.13.71-.03.85-.36.05-.12.06-.25.03-.37-.7-3.42-1.97-6.32,1.17-9.04.68-.59,1.7-.52,2.3.15,5.19,5.81,11.43,10.76,18.7,14.83,1.58.89,3.31,3.38,1.13,4.66-1.39.81-4.34,2.51-8.83,5.11-.31.17-.67.23-1.02.15-.39-.08-.79-.32-1.2-.72-.25-.25-.57-.41-.91-.46-.47-.07-.88-.23-1.25-.47-.31-.2-.44-.56-.37-1.08.09-.79.11-1.39.06-1.81-.05-.36-.38-.6-.74-.55-.09.01-.18.05-.26.09-.49.31-.97.86-1.45,1.65-.13.22-.13.48,0,.7l.77,1.34c.19.31.14.71-.1.99-.41.48-.72.98-.93,1.49-.18.46-.21.97-.07,1.45.48,1.7,1.86,4.63-.18,5.87ZM53.97,86.46c.42-.42.42-1.11,0-1.53-.04-.04-.08-.07-.12-.1l-15.25-11.28c-.31-.22-.74-.15-.96.16-.12.17-.16.38-.11.58l1.49,5.37c.11.39.44.67.84.71l2.11.22c.3.03.52.3.49.61l-.18,1.7c-.05.42.26.79.67.84.15.02.31-.01.45-.09.42-.23.89-.59,1.4-1.09.53-.52,1.38-.51,1.9.01l4.74,4.74c.46.46,1.2.46,1.66,0,0,0,0,0,0,0l.86-.85ZM37.45,83.17c.27-.11.25-.81-.06-1.57h0c-.3-.76-.77-1.29-1.04-1.18-.27.11-.25.81.06,1.57,0,0,0,0,0,0,.3.76.77,1.29,1.04,1.18ZM41.8,87.84c.19-.18.08-.6-.24-.96-.33-.35-.74-.5-.93-.32,0,0,0,0,0,0-.19.18-.08.6.24.96.33.35.74.5.93.32,0,0,0,0,0,0ZM49.01,89.76c-.33.49-.43.96-.29,1.41.08.23.33.35.56.27.04-.01.08-.04.12-.06.04-.03.26-.33.65-.92.39-.58.6-.9.61-.95.06-.24-.09-.47-.33-.53-.04-.01-.09-.01-.13-.01-.46.03-.86.3-1.19.79Z"/>
  <path class="cls-2" d="M134.17,69.14c-.1-.31.07-.63.37-.72,0,0,.01,0,.02,0,4.09-1.22,8.24-1.43,12.44-.63.44.09.72.51.64.95-.04.2-.15.38-.32.5l-5.97,4.28c-.44.32-1.05.29-1.46-.07-1.67-1.49-3.37-2.66-5.08-3.51-.31-.15-.52-.42-.64-.79Z"/>
  <path class="cls-1" d="M217.56,72.22c.13.27-.54.98-2.01,2.14-.1.08-.21.13-.33.15-.53.11-.91-.08-1.15-.56-.24-.48-.16-.9.24-1.25.09-.08.21-.14.33-.17,1.81-.48,2.79-.58,2.92-.31Z"/>
  <path class="cls-1" d="M51.44,87.31l-4.74-4.74c-.52-.52-1.37-.53-1.9-.01-.51.5-.98.86-1.4,1.09-.37.2-.83.07-1.03-.3-.07-.14-.11-.29-.09-.45l.18-1.7c.03-.31-.19-.58-.49-.61l-2.11-.22c-.4-.04-.73-.32-.84-.71l-1.49-5.37c-.1-.37.12-.75.49-.85.2-.05.42-.02.58.11l15.25,11.28c.48.36.58,1.03.22,1.51-.03.04-.07.08-.1.12l-.86.85c-.45.46-1.2.46-1.66,0,0,0,0,0,0,0Z"/>
  <ellipse class="cls-1" cx="36.9" cy="81.8" rx=".53" ry="1.48" transform="translate(-27.74 19.55) rotate(-21.8)"/>
  <path class="cls-2" d="M239.07,90.7c.59.04.94-.03,1.04-.21.42-.78,0-1.8-.93-2.27-.1-.05-.21-.1-.32-.13-2.38-.75-4.12-1.12-5.23-1.11-.27,0-.48-.21-.49-.47,0-.03,0-.07,0-.1.26-1.3.79-2.33,1.58-3.09.34-.32.87-.31,1.19.03.09.09.15.21.19.33.32,1.05,1.06,1.82,2.23,2.32.23.1.49,0,.59-.24,0-.02.01-.04.02-.05.57-1.88,1.35-3.36,2.34-4.43.49-.53.99-.79,1.48-.76.23,0,.41.2.4.44,0,.01,0,.02,0,.03-.22,1.95-1.11,3.58-2.66,4.9-.17.14-.18.39-.04.55.05.06.12.11.2.13l5.88,1.52c.45.11.91-.16,1.03-.61l.56-2.16c.09-.31.4-.5.7-.42,2.73.67,5.55.8,8.45.41.71-.1,1.36.4,1.45,1.11.01.1.02.21,0,.31l-.03.25c-.08.79-.78,1.36-1.56,1.27,0,0-.02,0-.03,0l-4.42-.54c-.42-.05-.84.06-1.19.3l-2.58,1.85c-.31.22-.38.65-.15.96.02.03.05.06.07.09.89.89,1.46,1.99,1.72,3.3.14.7-.3,1.39-1,1.53-.01,0-.02,0-.04,0-1.02.18-2.05.17-3.1-.04-.19-.04-.37-.11-.53-.21l-7.01-4.29c-.13-.07-.18-.24-.1-.37.06-.09.16-.15.27-.14ZM247.47,93.27c.38-.4-.05-1.44-.98-2.32,0,0,0,0,0,0-.92-.88-1.98-1.28-2.36-.88-.38.4.05,1.44.98,2.32,0,0,0,0,0,0,.92.88,1.98,1.28,2.36.88Z"/>
  <ellipse class="cls-1" cx="41.21" cy="87.2" rx=".47" ry=".87" transform="translate(-48.15 50.91) rotate(-42.6)"/>
  <path class="cls-1" d="M50.05,90.46c-.39.59-.61.89-.65.92-.19.15-.47.11-.62-.09-.03-.04-.05-.08-.06-.12-.14-.45-.04-.92.29-1.41.33-.49.73-.76,1.19-.79.24-.02.45.16.47.41,0,.04,0,.09-.01.13-.01.05-.22.37-.61.95Z"/>
  <path class="cls-2" d="M243.15,95.79s0,0,0,.01c0,0,0,0,0,0v.02c-1.1,1.85-4.52,1.87-7.64.03l-.44-.25c-3.12-1.84-4.76-4.83-3.67-6.69,0,0,0,0,0,0l.02-.03s0,0,0,0l11.72,6.9Z"/>
  <ellipse class="cls-1" cx="245.8" cy="91.67" rx="1" ry="2.31" transform="translate(9.51 205.63) rotate(-46.2)"/>
  <path class="cls-2" d="M233.81,99.11c.24.4.11.91-.28,1.15-.22.14-.5.16-.74.07l-2.8-1.09c-.34-.13-.72-.11-1.04.07l-3.07,1.78c-.56.33-1.28.18-1.67-.34-1.13-1.48-2.24-4.05-1.37-5.81.13-.27.46-.39.74-.25.1.05.18.13.24.22l1.33,2.29c.15.26.39.46.69.55.75.23,1.38.11,1.9-.34.33-.29.36-.79.08-1.11-.04-.04-.08-.08-.13-.12l-2.27-1.68c-.78-.58-1.17-1.54-1.01-2.5l.08-.51c.07-.39.44-.65.84-.58.1.02.19.06.27.11l5.46,3.75c.1.07.18.15.25.26l2.5,4.08Z"/>
  <path class="cls-2" d="M166.34,91.99h11.07c.4,0,.72.32.72.72,0,.13-.04.26-.1.38-3.51,5.83-6.93,10.76-12.09,14.84-.91.71-2.64,2.13-5.2,4.24-.27.23-.68.2-.92-.07-.18-.21-.21-.5-.07-.74l4.04-7.83c.14-.26.23-.55.28-.85l1.72-10.22c.04-.27.28-.47.55-.47Z"/>
  <path class="cls-2" d="M38.1,120.16l1.34-3.43c.28-.73-.08-1.55-.81-1.84,0,0,0,0,0,0l-4.02-1.57c-.42-.17-.89.04-1.05.45-.09.23-.07.49.05.71l3.33,5.76c.22.38.08.87-.3,1.09-.02.01-.04.02-.06.03-2,.91-3.69,1.15-5.06.72-2.44-.76-4.3-4.39-5.13-6.73-.29-.81.1-1.7.89-2.04.57-.24,1.04-.54,1.43-.9.22-.2.23-.54.02-.75-.09-.09-.2-.15-.33-.17l-3.96-.42c-.58-.06-1.09.36-1.15.94-.01.13,0,.27.03.4l2.47,8.86c.15.55-.17,1.13-.73,1.28-.02,0-.03,0-.05.01h-.05c-.71.13-1.41-.25-1.69-.91-1.41-3.29-3.19-7.76-5.33-13.4-.89-2.35-1.77-3.69.22-5.19.75-.57,1.82-.42,2.38.33.04.06.08.12.12.18l1.92,3.32c.41.7,1.05,1.22,1.81,1.46,4.09,1.33,8.89,2.28,14.39,2.85,1.78.18,3.67.96,5.01,2.31.56.56.62,1.44.15,2.08l-4.1,5.53c-.32.45-.94.56-1.39.24-.38-.27-.52-.77-.35-1.2ZM32.79,118.86c0-.5-.4-.9-.9-.9s-.9.4-.9.9.4.9.9.9h0c.5,0,.9-.4.9-.9h0Z"/>
  <path class="cls-2" d="M252.1,126.73c-.51.91-.78,1.78-.79,2.63-.01.77-.65,1.38-1.41,1.37-.16,0-.31-.03-.46-.09-1.5-.55-2.71-1.41-3.63-2.58-.39-.48-1.07-.61-1.6-.3l-3.96,2.28c-.73.42-1.1,1.27-.92,2.09l.38,1.81c.11.51.61.84,1.13.73.13-.03.26-.08.36-.16l3.07-2.2c.36-.26.87-.17,1.13.18.21.28.2.67-.01.95l-5.59,7.55c-.44.6-1.28.74-1.89.3-.28-.2-.47-.51-.53-.85l-1.81-9.6c-.22-1.15.28-2.32,1.27-2.96.47-.3,1.68-.73,3.63-1.29.5-.15.8-.64.67-1.11-.03-.09-.07-.18-.12-.26-.19-.25-.49-.38-.88-.38-1.81.01-3.3.02-4.46.03-.97,0-1.77-.76-1.81-1.72v-.22c-.05-.78.56-1.44,1.33-1.47.09,0,.18,0,.27.01l3.34.5c.32.05.64-.08.83-.34l.77-1.04c.29-.39.85-.48,1.25-.18,0,0,0,0,0,0l3.74,2.76c.14.11.33.11.47,0l1.33-.95c.51-.36,1.22-.25,1.59.26.04.06.08.12.1.18.54,1.17,1.22,1.87,2.03,2.1.24.07.49-.07.55-.31.03-.12.02-.24-.04-.35l-.83-1.44c-.22-.39-.18-.87.1-1.2l1.88-2.25c.08-.09.18-.17.29-.22l5.17-2.52c.24-.11.34-.4.22-.65-.04-.07-.09-.14-.15-.18l-.6-.44c-.41-.3-.97-.31-1.38,0l-3.15,2.26c-.19.13-.43.19-.67.15-3.47-.62-6.43-1.05-8.9-1.29-2.84-.27-5.36,2.33-7.69,2.41-1.95.07-3.6-.2-4.95-.81-.43-.19-.67-.65-.58-1.1.27-1.43,1.42-2.3,3.45-2.61,6.73-1.02,12.97-1.31,18.74-.88.35.03.67-.22.73-.57l.37-2.21c.15-.89.99-1.49,1.88-1.34.26.04.5.15.7.3l7.98,5.91c.45.33.8.79,1.01,1.31.51,1.3,1.4,2.44,2.68,3.43.36.28.42.79.15,1.15-.18.23-.47.35-.77.31-1.69-.26-3.15-.93-4.39-2-.91-.8-2.21-.99-3.32-.49l-4.86,2.2c-.3.14-.43.5-.29.8.06.14.18.25.32.3,1.16.45,1.93,1.01,2.32,1.68,1.11,1.91,3.19,2.93,4.86,4.55.71.69.87,1.78.36,2.42-.14.18-.33.31-.54.38-2.32.79-7.04-3.11-8.67-4.82-.18-.2-.49-.22-.7-.03-.04.04-.08.08-.1.13ZM247.82,126.05c-.05-.1-.24-.28-.58-.55-.24-.19-.59-.14-.78.1-.31.41-.32.79-.04,1.14.29.33.81.4,1.16.15.27-.19.37-.53.24-.84Z"/>
  <circle class="cls-1" cx="31.89" cy="118.86" r=".9"/>
  <path class="cls-2" d="M12.69,124.17c.67-1.63,3.19-3.71,4.96-3.78,1.72-.07,3.13.82,4.24,2.68.22.38.09.87-.29,1.09-.14.08-.3.12-.46.11-2.73-.21-5.29.05-7.66.77-.34.1-.71-.09-.81-.43-.04-.14-.04-.3.02-.44Z"/>
  <path class="cls-2" d="M258.81,123.62c-.17-.48.07-1.01.55-1.18.23-.08.48-.07.7.03.96.45,1.89,1.45,2.79,3.01.2.36.65.48,1.01.28.15-.08.26-.22.33-.38.39-.99,1.02-1.42,1.87-1.27.36.06.63.35.67.72.17,1.57.16,2.61-.03,3.13-.35,1-1.44,1.52-2.43,1.17-.21-.07-.4-.18-.58-.32-1.4-1.14-4.05-2.93-4.88-5.19Z"/>
  <path class="cls-2" d="M37.18,131.18c.23.23.6.23.83,0l.37-.37c.15-.14.15-.38,0-.53l-5.03-5.03c-.3-.3-.45-.71-.42-1.14l.03-.3c.04-.32.33-.55.66-.52.1.01.19.05.27.11,5.38,3.85,10.12,8.03,14.23,12.53.41.45.57.99.47,1.62-.13.82-.9,1.38-1.71,1.25-.02,0-.04,0-.06-.01-1.23-.25-2.38-.79-3.46-1.61-.71-.54-3.64-2.62-8.77-6.23-2.59-1.82-5.56-2.99-8.9-3.51-.44-.06-.74-.47-.68-.91.02-.17.1-.33.23-.45l2.28-2.28c.63-.63,1.65-.63,2.28,0,0,0,0,0,0,0l7.38,7.38Z"/>
  <path class="cls-1" d="M247.82,126.05c.16.4-.05.82-.47.95-.33.1-.7,0-.93-.26-.28-.35-.27-.73.04-1.14.19-.24.54-.29.78-.1.34.27.53.45.58.55Z"/>
  <rect class="cls-2" x="125.64" y="132.14" width="4.66" height="6.04" rx=".87" ry=".87" transform="translate(-12.22 257.6) rotate(-87.7)"/>
  <path class="cls-2" d="M150.72,137.19c-.46-.01-.82-.39-.81-.85,0,0,0,0,0-.01l.06-1.68c.04-1.14.91-2.04,1.95-2l2,.06c1.04.03,1.85.99,1.81,2.13,0,0,0,0,0,0l-.06,1.67c-.01.46-.39.82-.85.81,0,0,0,0-.01,0l-4.09-.14Z"/>
  <rect class="cls-2" x="124.68" y="141.32" width="5.7" height="6.4" rx=".27" ry=".27" transform="translate(-21.14 267.19) rotate(-88.1)"/>
  <rect class="cls-2" x="150.43" y="141.7" width="6.58" height="5.4" rx=".27" ry=".27" transform="translate(-5.67 6.29) rotate(-2.3)"/>
  <path class="cls-2" d="M46.62,196.96c.59-1.01.99-1.63,1.22-1.87.68-.71.67-1.84-.03-2.53-.38-.37-.9-.55-1.42-.48-2.63.31-4.66,1.63-6.07,3.97-.43.72-.2,1.64.51,2.07.33.2.71.26,1.09.18l2.6-.56c.38-.09.76.16.85.54.06.25-.03.51-.22.68-2.47,2.23-4.76,2.06-6.85-.49-.85-1.03-.94-2.49-.23-3.62,2.08-3.3,9.95-8.12,12.47-1.97.98,2.4-1.27,4.49-3.54,4.68-.22.02-.41-.14-.43-.36,0-.08.01-.16.05-.24Z"/>
  <path class="cls-2" d="M228.46,198.3c-.38,0-.68-.3-.69-.67,0-.12.03-.23.09-.34l3.15-5.62c.3-.53.86-.86,1.47-.85h.06c.45.02.8.41.77.86,0,.08-.02.15-.04.23l-.66,1.89c-.12.33.02.7.33.87l7.99,4.29c.53.29.8.9.65,1.49l-.07.27c-.09.34-.44.55-.79.46-.05-.01-.09-.03-.13-.05l-8.79-4.54c-.41-.21-.92-.08-1.18.3-.63.93-1.35,1.4-2.16,1.41Z"/>
  <path class="cls-2" d="M55.29,200.43c1.29,1.72.94,4.17-.79,5.46l-4.42,3.31c-1.72,1.29-4.17.94-5.46-.79l-.32-.43c-1.29-1.72-.94-4.17.79-5.46l4.42-3.31c1.72-1.29,4.17-.94,5.46.79l.32.43ZM53.49,201.77c-.65-.97-2.9-.61-5.03.81-2.13,1.42-3.33,3.36-2.68,4.33.65.97,2.9.61,5.03-.81,2.13-1.42,3.33-3.36,2.68-4.33Z"/>
  <path class="cls-2" d="M225.74,205.15l.23.39c.32.57,1.05.76,1.62.43,0,0,0,0,0,0l3.74-2.16c.36-.21.79-.28,1.2-.22,2.4.38,4.96,3.17,3.24,5.71-1.28,1.88-3.97,4.26-6.04,1.85-.35-.4-.31-1,.09-1.35.15-.13.34-.22.54-.24l2.03-.21c.89-.09,1.54-.88,1.45-1.77,0-.09-.03-.19-.05-.28l-.09-.32c-.22-.78-1.03-1.24-1.81-1.02-.12.03-.23.08-.34.14l-3.36,1.94c-.85.49-1.91.45-2.71-.12-4.82-3.41-.1-9.3,3.89-6.59.27.19.33.55.15.82-.08.11-.19.19-.32.23l-2.62.73c-.74.21-1.18.98-.98,1.72.03.11.08.22.14.32Z"/>
  <ellipse class="cls-1" cx="49.64" cy="204.34" rx="4.63" ry="2.12" transform="translate(-105.04 61.88) rotate(-33.7)"/>
  <path class="cls-2" d="M54.72,219.68l-.31.25c-.27.22-.68.18-.9-.09l-4.41-5.42c-.28-.34-.23-.85.11-1.13,0,0,0,0,0,0l9.19-7.49c.27-.22.67-.18.89.09.01.01.02.03.03.05l.15.25c.36.54.24,1.27-.26,1.68l-7.12,5.8c-.38.3-.44.84-.14,1.22,0,0,0,.01.01.02l2.88,3.54c.3.38.24.93-.13,1.23Z"/>
  <rect class="cls-2" x="221.96" y="207.69" width="2.2" height="13.8" rx="1.08" ry="1.08" transform="translate(-84.82 246.45) rotate(-49.8)"/>
  <path class="cls-1" d="M133.05,222.32c.01-.07.41-.37,1.19-.9.31-.21.58-.55.8-1,1.06-2.19,2.4-6.92.49-8.78-.5-.48-1.3-.46-1.78.04-.22.23-.34.53-.35.84-.04,2.22.3,3.86,1.01,4.91.12.17.07.41-.11.53-.07.05-.15.07-.23.06-1.65-.11-2.55-1.08-2.7-2.93-.36-4.57,5.8-6.92,6.89-1.25.78,4.07-.78,7.03-4.67,8.89-.19.09-.42.01-.51-.18-.04-.07-.05-.15-.03-.23Z"/>
  <path class="cls-1" d="M143.37,222.81c-.19.09-.42.01-.51-.18-.03-.07-.04-.15-.03-.22.01-.07.41-.38,1.18-.91.31-.21.57-.55.78-1,1.03-2.19,2.31-6.91.39-8.74-.5-.47-1.29-.45-1.77.05-.22.23-.34.54-.34.85-.01,2.21.34,3.83,1.06,4.87.12.17.07.41-.11.53-.07.04-.14.07-.22.06-1.64-.09-2.55-1.05-2.72-2.88-.41-4.54,5.69-6.95,6.84-1.32.82,4.03-.7,7-4.55,8.89Z"/>
  <path class="cls-1" d="M155.52,221.73c.8-1.81.32-3.27-1.43-4.38-.31-.19-.49-.53-.49-.89,0-.43.24-.86.75-1.29.55-.46.8-.88.75-1.25-.14-.95-1.01-1.58-2.62-1.9-.23-.04-.38-.26-.34-.49.01-.07.04-.13.08-.18l.41-.55c.26-.36.71-.54,1.15-.45,1.27.25,2.24.75,2.93,1.48.62.66.46,1.76-.36,2.46-.13.11-.28.21-.43.29-.25.13-.36.31-.34.54.01.19.08.37.2.51,1.76,2.17,2.74,4.77.16,6.46-.14.08-.31.04-.4-.09-.05-.08-.06-.18-.02-.27Z"/>
  <rect class="cls-1" x="124.35" y="211.11" width="2.22" height="11.74" rx=".41" ry=".41" transform="translate(-6.75 4.05) rotate(-1.8)"/>
  <path class="cls-2" d="M62.72,227.69l-.29.29c-.26.25-.66.25-.91,0l-5-5c-.32-.32-.32-.83,0-1.15,0,0,0,0,0,0l8.47-8.48c.25-.25.66-.24.91.01.01.01.02.03.03.04l.18.23c.41.51.37,1.25-.09,1.72l-6.56,6.57c-.35.34-.35.9-.02,1.24,0,0,.01.01.02.02l3.26,3.26c.34.35.34.91,0,1.25Z"/>
  <path class="cls-2" d="M216.05,222.57c-1.01.97-.99,1.93.07,2.87,1.15,1.01,1.96,1.88,2.44,2.59.25.37.14.88-.23,1.12-.04.03-.08.05-.13.07l-.03.02c-.53.22-1.14.09-1.53-.32-3.76-3.9-6.04-6.21-6.84-6.92-.79-.7-1.22-1.34-1.3-1.92-.08-.56.31-1.07.87-1.15.37-.05.74.1.96.4,1.8,2.47,3.3,3.13,4.5,1.98,1.2-1.15.6-2.68-1.8-4.57-.45-.34-.53-.98-.19-1.43.24-.31.63-.46,1.01-.38.57.11,1.2.57,1.87,1.38.68.83,2.9,3.19,6.65,7.1.39.41.5,1.02.26,1.54l-.02.03c-.19.41-.67.59-1.07.4-.05-.02-.09-.05-.14-.08-.69-.51-1.52-1.35-2.49-2.54-.9-1.1-1.85-1.16-2.86-.19Z"/>
  <path class="cls-2" d="M64.8,230.9c-.27-.21-.33-.59-.13-.86h0l6.71-9.07c.4-.54,1.16-.68,1.72-.31,1.91,1.25,3.5,2.69,4.76,4.32.25.34.17.81-.17,1.06-.26.19-.62.19-.88,0l-3.26-2.42c-.52-.39-1.25-.28-1.64.24-.01.02-.03.04-.04.06l-.3.45c-.46.71-.29,1.65.39,2.15l1.98,1.46c.51.38.62,1.11.24,1.62l-.2.27c-.14.19-.4.23-.58.09,0,0,0,0,0,0l-3.13-2.32c-.41-.3-.98-.22-1.28.19h0l-1.34,1.81c-.26.36-.19.85.16,1.11,0,0,0,0,0,0l3.25,2.41c.38.27.46.8.18,1.17,0,0,0,0,0,0l-.25.34c-.21.28-.61.34-.89.13l-5.31-3.93Z"/>
  <path class="cls-1" d="M153.78,222.46c.24.05.39.28.34.52-.04.21-.23.36-.44.36-1.97-.04-3.01-.62-3.14-1.75-.04-.34.21-.65.54-.69.17-.02.33.03.46.14,1.05.86,1.79,1.33,2.24,1.42Z"/>
  <path class="cls-2" d="M82.27,234.88c.48.42.61,1.12.32,1.68l-2.18,4.23c-.28.53-.94.74-1.46.46-.05-.03-.1-.06-.15-.09l-3.41-2.52c-1.01-.75-1.42-2.07-1.01-3.26.83-2.43,5.02-9.34,8.61-7.24,2.54,1.49,3.03,4.09.95,6.27-.17.18-.46.18-.64,0-.08-.07-.12-.17-.13-.28l-.29-2.86c-.08-.78-.78-1.35-1.56-1.27-.27.03-.52.13-.73.3-1.52,1.19-5.96,6.15-2.85,7.85.78.43,1.75.18,2.18-.56.12-.21.19-.44.19-.68,0-.37-.18-.99-.57-1.88-.17-.38,0-.83.39-1,.13-.06.27-.08.41-.06.69.09,1.34.39,1.93.9Z"/>
  <ellipse class="cls-2" cx="205.56" cy="230.66" rx="2.06" ry="2.28" transform="translate(-27.59 433.39) rotate(-89.3)"/>
  <path class="cls-2" d="M195.57,236.58l-2.67-4.64c-.21-.36-.09-.83.28-1.04,0,0,0,0,0,0l.37-.21c.39-.23.89-.11,1.14.28,2.8,4.36,4.7,7.43,5.71,9.21.34.6.51.93.5,1-.04.81-.73,1.42-1.53,1.38-.3-.02-.58-.12-.82-.3l-5.17-4.01c-.09-.07-.21-.05-.27.03,0,0,0,0,0,0l-.29.4c-.07.1-.08.23-.02.33l3.04,5.26c.21.37.08.83-.29,1.04-.14.08-.3.11-.45.09l-.56-.06c-.47-.05-.89-.33-1.11-.75-1.47-2.73-3.24-5.76-5.31-9.09-.17-.27-.26-.55-.26-.84-.01-.61.47-1.12,1.09-1.13.24,0,.47.07.66.2l5.14,3.6c.26.18.61.11.79-.14.12-.18.13-.42.03-.61Z"/>
  <path class="cls-2" d="M82.65,243.07l5.65-10.96c.11-.21.37-.29.58-.18l5.77,2.98c.15.08.25.25.23.42l-.13,1.21c-.02.24-.24.41-.47.38-.05,0-.1-.02-.15-.04l-4.34-2.23c-.21-.11-.47-.03-.58.18l-1.15,2.25c-.11.21-.03.47.18.58l3.68,1.9c.15.08.25.25.23.42l-.12,1.12c-.02.24-.24.41-.47.38-.05,0-.1-.02-.15-.04l-3.86-2c-.19-.1-.42-.05-.55.12l-1.79,2.42c-.14.19-.1.46.09.6.02.01.04.03.06.04l4.23,2.19c.11.06.19.17.22.29l.33,1.53c.05.23-.1.46-.33.51-.1.02-.2,0-.29-.04l-6.69-3.45c-.21-.11-.29-.37-.18-.58Z"/>
  <path class="cls-2" d="M189.79,243.12c1.01,1.92.28,4.29-1.64,5.3h0l-.41.21c-1.92,1.01-4.29.28-5.3-1.64l-2.51-4.76c-1.01-1.92-.28-4.29,1.64-5.3l.41-.21c1.92-1.01,4.29-.28,5.3,1.64l2.51,4.76ZM186.95,246.96c1.08-.53,1.01-2.88-.15-5.25h0c-1.17-2.37-2.99-3.86-4.07-3.33-1.08.53-1.01,2.88.15,5.25h0c1.17,2.37,2.99,3.86,4.07,3.33Z"/>
  <ellipse class="cls-1" cx="184.84" cy="242.67" rx="2.18" ry="4.78" transform="translate(-88.15 106.54) rotate(-26.2)"/>
  <path class="cls-2" d="M103.04,252.76c-2.36-.84-3.23-4.42-1.95-7.99h0c1.28-3.57,4.23-5.78,6.58-4.94,2.36.84,3.23,4.42,1.95,7.99t0,0c-1.28,3.57-4.23,5.78-6.58,4.94h0ZM103.82,250.74c1.07.38,2.65-1.32,3.55-3.8t0,0c.89-2.48.76-4.81-.31-5.19-1.07-.38-2.65,1.32-3.55,3.8t0,0c-.89,2.48-.76,4.81.31,5.19Z"/>
  <rect class="cls-2" x="173.85" y="239.67" width="2.22" height="13.52" rx="1.09" ry="1.09" transform="translate(-71 70.82) rotate(-19.1)"/>
  <ellipse class="cls-1" cx="105.44" cy="246.24" rx="4.78" ry="2.05" transform="translate(-161.96 262.04) rotate(-70.2)"/>
  <path class="cls-2" d="M117.58,250.85l-2.67-1.04c-.45-.18-.96.05-1.14.5-.01.03-.02.06-.03.1l-1.01,3.92c-.16.6-.77.95-1.37.8l-.36-.09c-.5-.13-.8-.63-.67-1.13l2.78-10.76c.18-.72.91-1.15,1.64-.97,0,0,0,0,0,0l5.76,1.49c.59.15.94.75.79,1.33,0,0,0,0,0,0l-.1.43c-.08.3-.4.48-.7.4,0,0,0,0,0,0l-4.39-1.13c-.58-.15-1.18.2-1.34.79l-.22.85c-.18.72.25,1.45.97,1.64l2.18.56c.62.16,1,.8.84,1.43l-.12.44c-.09.34-.43.54-.77.45-.02,0-.05-.01-.07-.02Z"/>
  <path class="cls-2" d="M165.12,243.22c-.08-.36.14-.71.5-.79,0,0,0,0,0,0l.66-.14c.58-.13,1.15.23,1.28.81,0,0,0,0,0,0l2.37,11.04c.1.47-.2.94-.67,1.04l-.42.09c-.56.12-1.12-.23-1.25-.8l-.79-3.45c-.22-.93-1.15-1.51-2.08-1.29-.59.14-1.06.57-1.25,1.15-.31.99.01,2.4.98,4.21.21.39.07.88-.33,1.1-.01,0-.03.02-.04.02-.83.39-1.51.35-2.03-.1-.12-.11-.21-.26-.25-.42l-2.45-11.41c-.07-.36.16-.72.53-.79.1-.02.2-.02.29,0l.55.14c.59.16,1.04.63,1.16,1.22l.56,2.6c.12.56.67.91,1.22.79,0,0,0,0,0,0l.83-.18c.87-.18,1.43-1.04,1.24-1.9,0,0,0,0,0-.01l-.63-2.95Z"/>
  <path class="cls-2" d="M157.35,247.68c.03.25-.15.48-.4.51-.09.01-.18,0-.26-.04l-3.05-1.58c-.46-.24-1.03-.06-1.28.41l-.21.4c-.33.65-.08,1.45.57,1.79.04.02.08.04.12.05,2.68,1.05,4.2,1.75,4.55,2.08,4.53,4.36-3.04,9.53-6.53,4.45-.73-1.06-.76-1.82-.09-2.27.26-.17.61-.14.83.08l1.96,1.96c.62.62,1.63.62,2.25,0,.18-.18.31-.4.39-.65.26-.84.32-1.38.19-1.61-.25-.45-.74-.8-1.46-1.03-2.46-.79-7.56-2.74-4.39-6.03,1.09-1.12,1.88-1.7,2.38-1.74,2.67-.21,4.14.87,4.43,3.22Z"/>
  <path class="cls-2" d="M136.08,251.95l-.05.45c-.03.35-.34.61-.69.58-.03,0-.05,0-.07-.01l-2.82-.57c-.48-.1-.94.22-1.04.7,0,.03-.01.07-.01.1l-.33,4.05c-.05.62-.59,1.08-1.21,1.03,0,0,0,0,0,0l-.37-.03c-.51-.04-.9-.48-.86-.99,0,0,0,0,0,0l.9-11.14c.06-.74.71-1.3,1.46-1.24l5.97.49c.61.05,1.06.59,1.01,1.19l-.03.44c-.03.31-.3.55-.62.52,0,0,0,0,0,0l-4.55-.37c-.61-.05-1.14.41-1.19,1.02l-.07.88c-.05.74.5,1.39,1.24,1.45l2.26.18c.65.05,1.13.63,1.08,1.28Z"/>
  <path class="cls-2" d="M143.47,245.3c.64-.02,1.07.29,1.29.94.94,2.81,2.18,6.61,3.72,11.42.1.32-.08.66-.4.76,0,0-.01,0-.02,0-.49.14-.95.09-1.38-.16-.23-.13-.46-.51-.7-1.16-.71-1.91-1.46-2.86-2.24-2.84-.78.03-1.47,1.02-2.07,2.97-.2.66-.41,1.06-.63,1.2-.42.27-.88.35-1.37.24-.33-.07-.54-.4-.46-.73,0,0,0,0,0-.01,1.25-4.89,2.26-8.77,3.03-11.62.17-.66.58-1,1.23-1.02ZM144.5,251.13c-.05-.4-.48-.67-.96-.61,0,0,0,0,0,0-.48.06-.82.44-.77.84,0,0,0,0,0,0,.05.4.48.67.96.61,0,0,0,0,0,0,.48-.06.82-.44.77-.84,0,0,0,0,0,0Z"/>
  <ellipse class="cls-1" cx="143.64" cy="251.24" rx=".87" ry=".73" transform="translate(-31.56 20.9) rotate(-7.5)"/>
</svg>